# MagicaVoxel @ ephtracy

# material
mtllib arrow.mtl
usemtl palette

# normals
vn -1 0 0
vn 1 0 0
vn 0 0 1
vn 0 0 -1
vn 0 -1 0
vn 0 1 0

# texcoords
vt 0.169922 0.5
vt 0.533203 0.5
vt 0.876953 0.5
vt 0.994141 0.5

# verts
v -7.5 2 0.5
v -7.5 2 -0.5
v -7.5 3 0.5
v -7.5 3 -0.5
v -6.5 1 0.5
v -6.5 1 -0.5
v -6.5 2 0.5
v -6.5 2 -0.5
v -6.5 3 0.5
v -6.5 3 -0.5
v -6.5 4 0.5
v -6.5 4 -0.5
v -5.5 0 0.5
v -5.5 0 -0.5
v -5.5 1 0.5
v -5.5 1 -0.5
v -4.5 4 0.5
v -4.5 4 -0.5
v -4.5 5 0.5
v -4.5 5 -0.5
v -3.5 5 0.5
v -3.5 5 -0.5
v -3.5 6 0.5
v -3.5 6 -0.5
v -2.5 6 0.5
v -2.5 6 -0.5
v -2.5 7 0.5
v -2.5 7 -0.5
v -1.5 7 0.5
v -1.5 7 -0.5
v -1.5 8 0.5
v -1.5 8 -0.5
v -0.5 8 0.5
v -0.5 8 -0.5
v -0.5 9 0.5
v -0.5 9 -0.5
v 0.5 9 0.5
v 0.5 9 -0.5
v 0.5 10 0.5
v 0.5 10 -0.5
v 1.5 10 0.5
v 1.5 10 -0.5
v 1.5 11 0.5
v 1.5 11 -0.5
v 2.5 11 0.5
v 2.5 11 -0.5
v 2.5 12 0.5
v 2.5 12 -0.5
v 3.5 12 0.5
v 3.5 12 -0.5
v 3.5 13 0.5
v 3.5 13 -0.5
v 3.5 14 0.5
v 3.5 14 -0.5
v 3.5 15 0.5
v 3.5 15 -0.5
v 4.5 13 0.5
v 4.5 13 -0.5
v 4.5 14 0.5
v 4.5 14 -0.5
v 6.5 11 0.5
v 6.5 11 -0.5
v 6.5 12 0.5
v 6.5 12 -0.5
v -4.5 0 0.5
v -4.5 0 -0.5
v -4.5 1 0.5
v -4.5 1 -0.5
v -3.5 1 0.5
v -3.5 1 -0.5
v -3.5 3 0.5
v -3.5 3 -0.5
v -2.5 3 0.5
v -2.5 3 -0.5
v -2.5 4 0.5
v -2.5 4 -0.5
v -1.5 4 0.5
v -1.5 4 -0.5
v -1.5 5 0.5
v -1.5 5 -0.5
v -0.5 5 0.5
v -0.5 5 -0.5
v -0.5 6 0.5
v -0.5 6 -0.5
v 0.5 6 0.5
v 0.5 6 -0.5
v 0.5 7 0.5
v 0.5 7 -0.5
v 1.5 7 0.5
v 1.5 7 -0.5
v 1.5 8 0.5
v 1.5 8 -0.5
v 2.5 8 0.5
v 2.5 8 -0.5
v 2.5 9 0.5
v 2.5 9 -0.5
v 3.5 9 0.5
v 3.5 9 -0.5
v 3.5 10 0.5
v 3.5 10 -0.5
v 4.5 10 0.5
v 4.5 10 -0.5
v 4.5 11 0.5
v 4.5 11 -0.5
v 5.5 11 0.5
v 5.5 11 -0.5
v 5.5 12 0.5
v 5.5 12 -0.5
v 7.5 11 0.5
v 7.5 11 -0.5
v 7.5 15 0.5
v 7.5 15 -0.5
v -7.5 2 0.5
v -7.5 3 0.5
v -6.5 1 0.5
v -6.5 2 0.5
v -6.5 3 0.5
v -6.5 4 0.5
v -5.5 0 0.5
v -5.5 1 0.5
v -5.5 2 0.5
v -5.5 3 0.5
v -4.5 0 0.5
v -4.5 1 0.5
v -4.5 2 0.5
v -4.5 3 0.5
v -4.5 4 0.5
v -4.5 5 0.5
v -3.5 1 0.5
v -3.5 3 0.5
v -3.5 4 0.5
v -3.5 5 0.5
v -3.5 6 0.5
v -2.5 3 0.5
v -2.5 4 0.5
v -2.5 5 0.5
v -2.5 6 0.5
v -2.5 7 0.5
v -1.5 4 0.5
v -1.5 5 0.5
v -1.5 6 0.5
v -1.5 7 0.5
v -1.5 8 0.5
v -0.5 5 0.5
v -0.5 6 0.5
v -0.5 7 0.5
v -0.5 8 0.5
v -0.5 9 0.5
v 0.5 6 0.5
v 0.5 7 0.5
v 0.5 8 0.5
v 0.5 9 0.5
v 0.5 10 0.5
v 1.5 7 0.5
v 1.5 8 0.5
v 1.5 9 0.5
v 1.5 10 0.5
v 1.5 11 0.5
v 2.5 8 0.5
v 2.5 9 0.5
v 2.5 10 0.5
v 2.5 11 0.5
v 2.5 12 0.5
v 3.5 9 0.5
v 3.5 10 0.5
v 3.5 11 0.5
v 3.5 12 0.5
v 3.5 13 0.5
v 3.5 14 0.5
v 3.5 15 0.5
v 4.5 10 0.5
v 4.5 11 0.5
v 4.5 12 0.5
v 4.5 13 0.5
v 4.5 14 0.5
v 5.5 11 0.5
v 5.5 12 0.5
v 5.5 13 0.5
v 5.5 14 0.5
v 6.5 11 0.5
v 6.5 12 0.5
v 6.5 14 0.5
v 7.5 11 0.5
v 7.5 15 0.5
v -7.5 2 -0.5
v -7.5 3 -0.5
v -6.5 1 -0.5
v -6.5 2 -0.5
v -6.5 3 -0.5
v -6.5 4 -0.5
v -5.5 0 -0.5
v -5.5 1 -0.5
v -5.5 2 -0.5
v -5.5 3 -0.5
v -4.5 0 -0.5
v -4.5 1 -0.5
v -4.5 2 -0.5
v -4.5 3 -0.5
v -4.5 4 -0.5
v -4.5 5 -0.5
v -3.5 1 -0.5
v -3.5 3 -0.5
v -3.5 4 -0.5
v -3.5 5 -0.5
v -3.5 6 -0.5
v -2.5 3 -0.5
v -2.5 4 -0.5
v -2.5 5 -0.5
v -2.5 6 -0.5
v -2.5 7 -0.5
v -1.5 4 -0.5
v -1.5 5 -0.5
v -1.5 6 -0.5
v -1.5 7 -0.5
v -1.5 8 -0.5
v -0.5 5 -0.5
v -0.5 6 -0.5
v -0.5 7 -0.5
v -0.5 8 -0.5
v -0.5 9 -0.5
v 0.5 6 -0.5
v 0.5 7 -0.5
v 0.5 8 -0.5
v 0.5 9 -0.5
v 0.5 10 -0.5
v 1.5 7 -0.5
v 1.5 8 -0.5
v 1.5 9 -0.5
v 1.5 10 -0.5
v 1.5 11 -0.5
v 2.5 8 -0.5
v 2.5 9 -0.5
v 2.5 10 -0.5
v 2.5 11 -0.5
v 2.5 12 -0.5
v 3.5 9 -0.5
v 3.5 10 -0.5
v 3.5 11 -0.5
v 3.5 12 -0.5
v 3.5 13 -0.5
v 3.5 14 -0.5
v 3.5 15 -0.5
v 4.5 10 -0.5
v 4.5 11 -0.5
v 4.5 12 -0.5
v 4.5 13 -0.5
v 4.5 14 -0.5
v 5.5 11 -0.5
v 5.5 12 -0.5
v 5.5 13 -0.5
v 5.5 14 -0.5
v 6.5 11 -0.5
v 6.5 12 -0.5
v 6.5 14 -0.5
v 7.5 11 -0.5
v 7.5 15 -0.5
v -5.5 0 0.5
v -4.5 0 0.5
v -5.5 0 -0.5
v -4.5 0 -0.5
v -6.5 1 0.5
v -5.5 1 0.5
v -4.5 1 0.5
v -3.5 1 0.5
v -6.5 1 -0.5
v -5.5 1 -0.5
v -4.5 1 -0.5
v -3.5 1 -0.5
v -7.5 2 0.5
v -6.5 2 0.5
v -7.5 2 -0.5
v -6.5 2 -0.5
v -3.5 3 0.5
v -2.5 3 0.5
v -3.5 3 -0.5
v -2.5 3 -0.5
v -2.5 4 0.5
v -1.5 4 0.5
v -2.5 4 -0.5
v -1.5 4 -0.5
v -1.5 5 0.5
v -0.5 5 0.5
v -1.5 5 -0.5
v -0.5 5 -0.5
v -0.5 6 0.5
v 0.5 6 0.5
v -0.5 6 -0.5
v 0.5 6 -0.5
v 0.5 7 0.5
v 1.5 7 0.5
v 0.5 7 -0.5
v 1.5 7 -0.5
v 1.5 8 0.5
v 2.5 8 0.5
v 1.5 8 -0.5
v 2.5 8 -0.5
v 2.5 9 0.5
v 3.5 9 0.5
v 2.5 9 -0.5
v 3.5 9 -0.5
v 3.5 10 0.5
v 4.5 10 0.5
v 3.5 10 -0.5
v 4.5 10 -0.5
v 4.5 11 0.5
v 5.5 11 0.5
v 6.5 11 0.5
v 7.5 11 0.5
v 4.5 11 -0.5
v 5.5 11 -0.5
v 6.5 11 -0.5
v 7.5 11 -0.5
v 5.5 12 0.5
v 6.5 12 0.5
v 5.5 12 -0.5
v 6.5 12 -0.5
v 3.5 14 0.5
v 4.5 14 0.5
v 3.5 14 -0.5
v 4.5 14 -0.5
v -7.5 3 0.5
v -6.5 3 0.5
v -7.5 3 -0.5
v -6.5 3 -0.5
v -6.5 4 0.5
v -4.5 4 0.5
v -6.5 4 -0.5
v -4.5 4 -0.5
v -4.5 5 0.5
v -3.5 5 0.5
v -4.5 5 -0.5
v -3.5 5 -0.5
v -3.5 6 0.5
v -2.5 6 0.5
v -3.5 6 -0.5
v -2.5 6 -0.5
v -2.5 7 0.5
v -1.5 7 0.5
v -2.5 7 -0.5
v -1.5 7 -0.5
v -1.5 8 0.5
v -0.5 8 0.5
v -1.5 8 -0.5
v -0.5 8 -0.5
v -0.5 9 0.5
v 0.5 9 0.5
v -0.5 9 -0.5
v 0.5 9 -0.5
v 0.5 10 0.5
v 1.5 10 0.5
v 0.5 10 -0.5
v 1.5 10 -0.5
v 1.5 11 0.5
v 2.5 11 0.5
v 1.5 11 -0.5
v 2.5 11 -0.5
v 2.5 12 0.5
v 3.5 12 0.5
v 2.5 12 -0.5
v 3.5 12 -0.5
v 3.5 13 0.5
v 4.5 13 0.5
v 3.5 13 -0.5
v 4.5 13 -0.5
v 3.5 15 0.5
v 7.5 15 0.5
v 3.5 15 -0.5
v 7.5 15 -0.5

# faces
f 3/1/1 2/1/1 1/1/1
f 4/1/1 2/1/1 3/1/1
f 7/2/1 6/2/1 5/2/1
f 8/2/1 6/2/1 7/2/1
f 11/1/1 10/1/1 9/1/1
f 12/1/1 10/1/1 11/1/1
f 15/1/1 14/1/1 13/1/1
f 16/1/1 14/1/1 15/1/1
f 19/4/1 18/4/1 17/4/1
f 20/4/1 18/4/1 19/4/1
f 23/4/1 22/4/1 21/4/1
f 24/4/1 22/4/1 23/4/1
f 27/4/1 26/4/1 25/4/1
f 28/4/1 26/4/1 27/4/1
f 31/4/1 30/4/1 29/4/1
f 32/4/1 30/4/1 31/4/1
f 35/4/1 34/4/1 33/4/1
f 36/4/1 34/4/1 35/4/1
f 39/4/1 38/4/1 37/4/1
f 40/4/1 38/4/1 39/4/1
f 43/4/1 42/4/1 41/4/1
f 44/4/1 42/4/1 43/4/1
f 47/4/1 46/4/1 45/4/1
f 48/4/1 46/4/1 47/4/1
f 51/4/1 50/4/1 49/4/1
f 52/4/1 50/4/1 51/4/1
f 55/4/1 54/4/1 53/4/1
f 56/4/1 54/4/1 55/4/1
f 59/4/1 58/4/1 57/4/1
f 60/4/1 58/4/1 59/4/1
f 63/4/1 62/4/1 61/4/1
f 64/4/1 62/4/1 63/4/1
f 65/1/2 66/1/2 67/1/2
f 67/1/2 66/1/2 68/1/2
f 69/1/2 70/1/2 71/1/2
f 71/1/2 70/1/2 72/1/2
f 73/3/2 74/3/2 75/3/2
f 75/3/2 74/3/2 76/3/2
f 77/3/2 78/3/2 79/3/2
f 79/3/2 78/3/2 80/3/2
f 81/3/2 82/3/2 83/3/2
f 83/3/2 82/3/2 84/3/2
f 85/3/2 86/3/2 87/3/2
f 87/3/2 86/3/2 88/3/2
f 89/3/2 90/3/2 91/3/2
f 91/3/2 90/3/2 92/3/2
f 93/3/2 94/3/2 95/3/2
f 95/3/2 94/3/2 96/3/2
f 97/3/2 98/3/2 99/3/2
f 99/3/2 98/3/2 100/3/2
f 101/4/2 102/4/2 103/4/2
f 103/4/2 102/4/2 104/4/2
f 105/3/2 106/3/2 107/3/2
f 107/3/2 106/3/2 108/3/2
f 109/4/2 110/4/2 111/4/2
f 111/4/2 110/4/2 112/4/2
f 116/1/3 114/1/3 113/1/3
f 117/1/3 114/1/3 116/1/3
f 120/2/3 116/2/3 115/2/3
f 121/1/3 118/1/3 117/1/3
f 121/1/3 117/1/3 116/1/3
f 121/2/3 116/2/3 120/2/3
f 122/1/3 118/1/3 121/1/3
f 123/1/3 120/1/3 119/1/3
f 123/1/3 121/1/3 120/1/3
f 124/1/3 121/1/3 123/1/3
f 125/2/3 122/2/3 121/2/3
f 125/1/3 121/1/3 124/1/3
f 126/1/3 118/1/3 122/1/3
f 126/2/3 122/2/3 125/2/3
f 127/1/3 118/1/3 126/1/3
f 129/1/3 125/1/3 124/1/3
f 129/1/3 126/1/3 125/1/3
f 130/2/3 127/2/3 126/2/3
f 130/1/3 126/1/3 129/1/3
f 131/4/3 128/4/3 127/4/3
f 131/2/3 127/2/3 130/2/3
f 132/4/3 128/4/3 131/4/3
f 134/3/3 131/3/3 130/3/3
f 135/2/3 132/2/3 131/2/3
f 135/3/3 131/3/3 134/3/3
f 136/4/3 133/4/3 132/4/3
f 136/2/3 132/2/3 135/2/3
f 137/4/3 133/4/3 136/4/3
f 139/3/3 136/3/3 135/3/3
f 140/2/3 137/2/3 136/2/3
f 140/3/3 136/3/3 139/3/3
f 141/4/3 138/4/3 137/4/3
f 141/2/3 137/2/3 140/2/3
f 142/4/3 138/4/3 141/4/3
f 144/3/3 141/3/3 140/3/3
f 145/2/3 142/2/3 141/2/3
f 145/3/3 141/3/3 144/3/3
f 146/4/3 143/4/3 142/4/3
f 146/2/3 142/2/3 145/2/3
f 147/4/3 143/4/3 146/4/3
f 149/3/3 146/3/3 145/3/3
f 150/2/3 147/2/3 146/2/3
f 150/3/3 146/3/3 149/3/3
f 151/4/3 148/4/3 147/4/3
f 151/2/3 147/2/3 150/2/3
f 152/4/3 148/4/3 151/4/3
f 154/3/3 151/3/3 150/3/3
f 155/2/3 152/2/3 151/2/3
f 155/3/3 151/3/3 154/3/3
f 156/4/3 153/4/3 152/4/3
f 156/2/3 152/2/3 155/2/3
f 157/4/3 153/4/3 156/4/3
f 159/3/3 156/3/3 155/3/3
f 160/2/3 157/2/3 156/2/3
f 160/3/3 156/3/3 159/3/3
f 161/4/3 158/4/3 157/4/3
f 161/2/3 157/2/3 160/2/3
f 162/4/3 158/4/3 161/4/3
f 164/3/3 161/3/3 160/3/3
f 165/2/3 162/2/3 161/2/3
f 165/3/3 161/3/3 164/3/3
f 166/4/3 163/4/3 162/4/3
f 166/2/3 162/2/3 165/2/3
f 167/4/3 163/4/3 166/4/3
f 171/4/3 166/4/3 165/4/3
f 172/2/3 167/2/3 166/2/3
f 172/4/3 166/4/3 171/4/3
f 173/4/3 168/4/3 167/4/3
f 173/2/3 167/2/3 172/2/3
f 174/4/3 168/4/3 173/4/3
f 175/4/3 170/4/3 169/4/3
f 176/3/3 173/3/3 172/3/3
f 177/2/3 174/2/3 173/2/3
f 177/3/3 173/3/3 176/3/3
f 178/4/3 175/4/3 174/4/3
f 178/2/3 174/2/3 177/2/3
f 179/4/3 170/4/3 175/4/3
f 179/4/3 175/4/3 178/4/3
f 181/3/3 178/3/3 177/3/3
f 181/3/3 179/3/3 178/3/3
f 182/4/3 170/4/3 179/4/3
f 182/3/3 179/3/3 181/3/3
f 183/4/3 181/4/3 180/4/3
f 183/4/3 182/4/3 181/4/3
f 184/4/3 170/4/3 182/4/3
f 184/4/3 182/4/3 183/4/3
f 185/1/4 186/1/4 188/1/4
f 188/1/4 186/1/4 189/1/4
f 187/2/4 188/2/4 192/2/4
f 189/1/4 190/1/4 193/1/4
f 188/1/4 189/1/4 193/1/4
f 192/2/4 188/2/4 193/2/4
f 193/1/4 190/1/4 194/1/4
f 191/1/4 192/1/4 195/1/4
f 192/1/4 193/1/4 195/1/4
f 195/1/4 193/1/4 196/1/4
f 193/2/4 194/2/4 197/2/4
f 196/1/4 193/1/4 197/1/4
f 194/1/4 190/1/4 198/1/4
f 197/2/4 194/2/4 198/2/4
f 198/1/4 190/1/4 199/1/4
f 196/1/4 197/1/4 201/1/4
f 197/1/4 198/1/4 201/1/4
f 198/2/4 199/2/4 202/2/4
f 201/1/4 198/1/4 202/1/4
f 199/4/4 200/4/4 203/4/4
f 202/2/4 199/2/4 203/2/4
f 203/4/4 200/4/4 204/4/4
f 202/3/4 203/3/4 206/3/4
f 203/2/4 204/2/4 207/2/4
f 206/3/4 203/3/4 207/3/4
f 204/4/4 205/4/4 208/4/4
f 207/2/4 204/2/4 208/2/4
f 208/4/4 205/4/4 209/4/4
f 207/3/4 208/3/4 211/3/4
f 208/2/4 209/2/4 212/2/4
f 211/3/4 208/3/4 212/3/4
f 209/4/4 210/4/4 213/4/4
f 212/2/4 209/2/4 213/2/4
f 213/4/4 210/4/4 214/4/4
f 212/3/4 213/3/4 216/3/4
f 213/2/4 214/2/4 217/2/4
f 216/3/4 213/3/4 217/3/4
f 214/4/4 215/4/4 218/4/4
f 217/2/4 214/2/4 218/2/4
f 218/4/4 215/4/4 219/4/4
f 217/3/4 218/3/4 221/3/4
f 218/2/4 219/2/4 222/2/4
f 221/3/4 218/3/4 222/3/4
f 219/4/4 220/4/4 223/4/4
f 222/2/4 219/2/4 223/2/4
f 223/4/4 220/4/4 224/4/4
f 222/3/4 223/3/4 226/3/4
f 223/2/4 224/2/4 227/2/4
f 226/3/4 223/3/4 227/3/4
f 224/4/4 225/4/4 228/4/4
f 227/2/4 224/2/4 228/2/4
f 228/4/4 225/4/4 229/4/4
f 227/3/4 228/3/4 231/3/4
f 228/2/4 229/2/4 232/2/4
f 231/3/4 228/3/4 232/3/4
f 229/4/4 230/4/4 233/4/4
f 232/2/4 229/2/4 233/2/4
f 233/4/4 230/4/4 234/4/4
f 232/3/4 233/3/4 236/3/4
f 233/2/4 234/2/4 237/2/4
f 236/3/4 233/3/4 237/3/4
f 234/4/4 235/4/4 238/4/4
f 237/2/4 234/2/4 238/2/4
f 238/4/4 235/4/4 239/4/4
f 237/4/4 238/4/4 243/4/4
f 238/2/4 239/2/4 244/2/4
f 243/4/4 238/4/4 244/4/4
f 239/4/4 240/4/4 245/4/4
f 244/2/4 239/2/4 245/2/4
f 245/4/4 240/4/4 246/4/4
f 241/4/4 242/4/4 247/4/4
f 244/3/4 245/3/4 248/3/4
f 245/2/4 246/2/4 249/2/4
f 248/3/4 245/3/4 249/3/4
f 246/4/4 247/4/4 250/4/4
f 249/2/4 246/2/4 250/2/4
f 247/4/4 242/4/4 251/4/4
f 250/4/4 247/4/4 251/4/4
f 249/3/4 250/3/4 253/3/4
f 250/3/4 251/3/4 253/3/4
f 251/4/4 242/4/4 254/4/4
f 253/3/4 251/3/4 254/3/4
f 252/4/4 253/4/4 255/4/4
f 253/4/4 254/4/4 255/4/4
f 254/4/4 242/4/4 256/4/4
f 255/4/4 254/4/4 256/4/4
f 259/1/5 258/1/5 257/1/5
f 260/1/5 258/1/5 259/1/5
f 265/2/5 262/2/5 261/2/5
f 266/2/5 262/2/5 265/2/5
f 267/1/5 264/1/5 263/1/5
f 268/1/5 264/1/5 267/1/5
f 271/1/5 270/1/5 269/1/5
f 272/1/5 270/1/5 271/1/5
f 275/3/5 274/3/5 273/3/5
f 276/3/5 274/3/5 275/3/5
f 279/3/5 278/3/5 277/3/5
f 280/3/5 278/3/5 279/3/5
f 283/3/5 282/3/5 281/3/5
f 284/3/5 282/3/5 283/3/5
f 287/3/5 286/3/5 285/3/5
f 288/3/5 286/3/5 287/3/5
f 291/3/5 290/3/5 289/3/5
f 292/3/5 290/3/5 291/3/5
f 295/3/5 294/3/5 293/3/5
f 296/3/5 294/3/5 295/3/5
f 299/3/5 298/3/5 297/3/5
f 300/3/5 298/3/5 299/3/5
f 303/4/5 302/4/5 301/4/5
f 304/4/5 302/4/5 303/4/5
f 309/3/5 306/3/5 305/3/5
f 310/3/5 306/3/5 309/3/5
f 311/4/5 308/4/5 307/4/5
f 312/4/5 308/4/5 311/4/5
f 315/3/5 314/3/5 313/3/5
f 316/3/5 314/3/5 315/3/5
f 319/4/5 318/4/5 317/4/5
f 320/4/5 318/4/5 319/4/5
f 321/1/6 322/1/6 323/1/6
f 323/1/6 322/1/6 324/1/6
f 325/1/6 326/1/6 327/1/6
f 327/1/6 326/1/6 328/1/6
f 329/4/6 330/4/6 331/4/6
f 331/4/6 330/4/6 332/4/6
f 333/4/6 334/4/6 335/4/6
f 335/4/6 334/4/6 336/4/6
f 337/4/6 338/4/6 339/4/6
f 339/4/6 338/4/6 340/4/6
f 341/4/6 342/4/6 343/4/6
f 343/4/6 342/4/6 344/4/6
f 345/4/6 346/4/6 347/4/6
f 347/4/6 346/4/6 348/4/6
f 349/4/6 350/4/6 351/4/6
f 351/4/6 350/4/6 352/4/6
f 353/4/6 354/4/6 355/4/6
f 355/4/6 354/4/6 356/4/6
f 357/4/6 358/4/6 359/4/6
f 359/4/6 358/4/6 360/4/6
f 361/4/6 362/4/6 363/4/6
f 363/4/6 362/4/6 364/4/6
f 365/4/6 366/4/6 367/4/6
f 367/4/6 366/4/6 368/4/6
