# MagicaVoxel @ ephtracy

# material
mtllib axe.mtl
usemtl palette

# normals
vn -1 0 0
vn 1 0 0
vn 0 0 1
vn 0 0 -1
vn 0 -1 0
vn 0 1 0

# texcoords
vt 0.369141 0.5
vt 0.876953 0.5
vt 0.962891 0.5
vt 0.966797 0.5
vt 0.974609 0.5

# verts
v -8 7 0.5
v -8 7 -0.5
v -8 9 0.5
v -8 9 -0.5
v -7 6 0.5
v -7 6 -0.5
v -7 7 0.5
v -7 7 -0.5
v -7 9 0.5
v -7 9 -0.5
v -7 10 0.5
v -7 10 -0.5
v -6 5 0.5
v -6 5 -0.5
v -6 6 0.5
v -6 6 -0.5
v -6 10 0.5
v -6 10 -0.5
v -6 11 0.5
v -6 11 -0.5
v -5 4 0.5
v -5 4 -0.5
v -5 5 0.5
v -5 5 -0.5
v -5 11 0.5
v -5 11 -0.5
v -5 12 0.5
v -5 12 -0.5
v -4 3 0.5
v -4 3 -0.5
v -4 4 0.5
v -4 4 -0.5
v -4 12 0.5
v -4 12 -0.5
v -4 13 0.5
v -4 13 -0.5
v -3 2 0.5
v -3 2 -0.5
v -3 3 0.5
v -3 3 -0.5
v -2 1 0.5
v -2 1 -0.5
v -2 2 0.5
v -2 2 -0.5
v -2 12 0.5
v -2 12 -0.5
v -2 13 0.5
v -2 13 -0.5
v 0 6 0.5
v 0 6 -0.5
v 0 7 0.5
v 0 7 -0.5
v 1 5 0.5
v 1 5 -0.5
v 1 6 0.5
v 1 6 -0.5
v 2 4 0.5
v 2 4 -0.5
v 2 5 0.5
v 2 5 -0.5
v 3 3 0.5
v 3 3 -0.5
v 3 4 0.5
v 3 4 -0.5
v 4 2 0.5
v 4 2 -0.5
v 4 3 0.5
v 4 3 -0.5
v 5 1 0.5
v 5 1 -0.5
v 5 2 0.5
v 5 2 -0.5
v 6 0 0.5
v 6 0 -0.5
v 6 1 0.5
v 6 1 -0.5
v -3 12 0.5
v -3 12 -0.5
v -3 13 0.5
v -3 13 -0.5
v -1 4 0.5
v -1 4 -0.5
v -1 7 0.5
v -1 7 -0.5
v -1 12 0.5
v -1 12 -0.5
v -1 13 0.5
v -1 13 -0.5
v 0 3 0.5
v 0 3 -0.5
v 0 4 0.5
v 0 4 -0.5
v 0 11 0.5
v 0 11 -0.5
v 0 12 0.5
v 0 12 -0.5
v 1 1 0.5
v 1 1 -0.5
v 1 3 0.5
v 1 3 -0.5
v 1 8 0.5
v 1 8 -0.5
v 1 9 0.5
v 1 9 -0.5
v 1 10 0.5
v 1 10 -0.5
v 1 11 0.5
v 1 11 -0.5
v 2 7 0.5
v 2 7 -0.5
v 2 8 0.5
v 2 8 -0.5
v 2 9 0.5
v 2 9 -0.5
v 2 10 0.5
v 2 10 -0.5
v 3 6 0.5
v 3 6 -0.5
v 3 7 0.5
v 3 7 -0.5
v 4 5 0.5
v 4 5 -0.5
v 4 6 0.5
v 4 6 -0.5
v 5 4 0.5
v 5 4 -0.5
v 5 5 0.5
v 5 5 -0.5
v 6 3 0.5
v 6 3 -0.5
v 6 4 0.5
v 6 4 -0.5
v 7 2 0.5
v 7 2 -0.5
v 7 3 0.5
v 7 3 -0.5
v 8 0 0.5
v 8 0 -0.5
v 8 2 0.5
v 8 2 -0.5
v -8 7 0.5
v -8 9 0.5
v -7 6 0.5
v -7 7 0.5
v -7 8 0.5
v -7 9 0.5
v -7 10 0.5
v -6 5 0.5
v -6 6 0.5
v -6 7 0.5
v -6 8 0.5
v -6 9 0.5
v -6 10 0.5
v -6 11 0.5
v -5 4 0.5
v -5 5 0.5
v -5 6 0.5
v -5 7 0.5
v -5 11 0.5
v -5 12 0.5
v -4 3 0.5
v -4 4 0.5
v -4 5 0.5
v -4 6 0.5
v -4 11 0.5
v -4 12 0.5
v -4 13 0.5
v -3 2 0.5
v -3 3 0.5
v -3 4 0.5
v -3 5 0.5
v -3 9 0.5
v -3 10 0.5
v -3 11 0.5
v -3 12 0.5
v -3 13 0.5
v -2 1 0.5
v -2 2 0.5
v -2 3 0.5
v -2 4 0.5
v -2 7 0.5
v -2 8 0.5
v -2 10 0.5
v -2 11 0.5
v -2 12 0.5
v -2 13 0.5
v -1 2 0.5
v -1 3 0.5
v -1 4 0.5
v -1 7 0.5
v -1 8 0.5
v -1 9 0.5
v -1 10 0.5
v -1 11 0.5
v -1 12 0.5
v -1 13 0.5
v 0 2 0.5
v 0 3 0.5
v 0 4 0.5
v 0 6 0.5
v 0 7 0.5
v 0 8 0.5
v 0 9 0.5
v 0 10 0.5
v 0 11 0.5
v 0 12 0.5
v 1 1 0.5
v 1 3 0.5
v 1 5 0.5
v 1 6 0.5
v 1 7 0.5
v 1 8 0.5
v 1 9 0.5
v 1 10 0.5
v 1 11 0.5
v 2 4 0.5
v 2 5 0.5
v 2 6 0.5
v 2 7 0.5
v 2 8 0.5
v 2 9 0.5
v 2 10 0.5
v 3 3 0.5
v 3 4 0.5
v 3 5 0.5
v 3 6 0.5
v 3 7 0.5
v 4 2 0.5
v 4 3 0.5
v 4 4 0.5
v 4 5 0.5
v 4 6 0.5
v 5 1 0.5
v 5 2 0.5
v 5 3 0.5
v 5 4 0.5
v 5 5 0.5
v 6 0 0.5
v 6 1 0.5
v 6 2 0.5
v 6 3 0.5
v 6 4 0.5
v 7 1 0.5
v 7 2 0.5
v 7 3 0.5
v 8 0 0.5
v 8 2 0.5
v -8 7 -0.5
v -8 9 -0.5
v -7 6 -0.5
v -7 7 -0.5
v -7 8 -0.5
v -7 9 -0.5
v -7 10 -0.5
v -6 5 -0.5
v -6 6 -0.5
v -6 7 -0.5
v -6 8 -0.5
v -6 9 -0.5
v -6 10 -0.5
v -6 11 -0.5
v -5 4 -0.5
v -5 5 -0.5
v -5 6 -0.5
v -5 7 -0.5
v -5 11 -0.5
v -5 12 -0.5
v -4 3 -0.5
v -4 4 -0.5
v -4 5 -0.5
v -4 6 -0.5
v -4 11 -0.5
v -4 12 -0.5
v -4 13 -0.5
v -3 2 -0.5
v -3 3 -0.5
v -3 4 -0.5
v -3 5 -0.5
v -3 9 -0.5
v -3 10 -0.5
v -3 11 -0.5
v -3 12 -0.5
v -3 13 -0.5
v -2 1 -0.5
v -2 2 -0.5
v -2 3 -0.5
v -2 4 -0.5
v -2 7 -0.5
v -2 8 -0.5
v -2 10 -0.5
v -2 11 -0.5
v -2 12 -0.5
v -2 13 -0.5
v -1 2 -0.5
v -1 3 -0.5
v -1 4 -0.5
v -1 7 -0.5
v -1 8 -0.5
v -1 9 -0.5
v -1 10 -0.5
v -1 11 -0.5
v -1 12 -0.5
v -1 13 -0.5
v 0 2 -0.5
v 0 3 -0.5
v 0 4 -0.5
v 0 6 -0.5
v 0 7 -0.5
v 0 8 -0.5
v 0 9 -0.5
v 0 10 -0.5
v 0 11 -0.5
v 0 12 -0.5
v 1 1 -0.5
v 1 3 -0.5
v 1 5 -0.5
v 1 6 -0.5
v 1 7 -0.5
v 1 8 -0.5
v 1 9 -0.5
v 1 10 -0.5
v 1 11 -0.5
v 2 4 -0.5
v 2 5 -0.5
v 2 6 -0.5
v 2 7 -0.5
v 2 8 -0.5
v 2 9 -0.5
v 2 10 -0.5
v 3 3 -0.5
v 3 4 -0.5
v 3 5 -0.5
v 3 6 -0.5
v 3 7 -0.5
v 4 2 -0.5
v 4 3 -0.5
v 4 4 -0.5
v 4 5 -0.5
v 4 6 -0.5
v 5 1 -0.5
v 5 2 -0.5
v 5 3 -0.5
v 5 4 -0.5
v 5 5 -0.5
v 6 0 -0.5
v 6 1 -0.5
v 6 2 -0.5
v 6 3 -0.5
v 6 4 -0.5
v 7 1 -0.5
v 7 2 -0.5
v 7 3 -0.5
v 8 0 -0.5
v 8 2 -0.5
v 6 0 0.5
v 8 0 0.5
v 6 0 -0.5
v 8 0 -0.5
v -2 1 0.5
v 1 1 0.5
v 5 1 0.5
v 6 1 0.5
v -2 1 -0.5
v 1 1 -0.5
v 5 1 -0.5
v 6 1 -0.5
v -3 2 0.5
v -2 2 0.5
v 4 2 0.5
v 5 2 0.5
v -3 2 -0.5
v -2 2 -0.5
v 4 2 -0.5
v 5 2 -0.5
v -4 3 0.5
v -3 3 0.5
v 3 3 0.5
v 4 3 0.5
v -4 3 -0.5
v -3 3 -0.5
v 3 3 -0.5
v 4 3 -0.5
v -5 4 0.5
v -4 4 0.5
v 2 4 0.5
v 3 4 0.5
v -5 4 -0.5
v -4 4 -0.5
v 2 4 -0.5
v 3 4 -0.5
v -6 5 0.5
v -5 5 0.5
v 1 5 0.5
v 2 5 0.5
v -6 5 -0.5
v -5 5 -0.5
v 1 5 -0.5
v 2 5 -0.5
v -7 6 0.5
v -6 6 0.5
v 0 6 0.5
v 1 6 0.5
v -7 6 -0.5
v -6 6 -0.5
v 0 6 -0.5
v 1 6 -0.5
v -8 7 0.5
v -7 7 0.5
v -1 7 0.5
v 0 7 0.5
v -8 7 -0.5
v -7 7 -0.5
v -1 7 -0.5
v 0 7 -0.5
v 1 9 0.5
v 2 9 0.5
v 1 9 -0.5
v 2 9 -0.5
v 7 2 0.5
v 8 2 0.5
v 7 2 -0.5
v 8 2 -0.5
v 0 3 0.5
v 1 3 0.5
v 6 3 0.5
v 7 3 0.5
v 0 3 -0.5
v 1 3 -0.5
v 6 3 -0.5
v 7 3 -0.5
v -1 4 0.5
v 0 4 0.5
v 5 4 0.5
v 6 4 0.5
v -1 4 -0.5
v 0 4 -0.5
v 5 4 -0.5
v 6 4 -0.5
v 4 5 0.5
v 5 5 0.5
v 4 5 -0.5
v 5 5 -0.5
v 3 6 0.5
v 4 6 0.5
v 3 6 -0.5
v 4 6 -0.5
v 2 7 0.5
v 3 7 0.5
v 2 7 -0.5
v 3 7 -0.5
v 1 8 0.5
v 2 8 0.5
v 1 8 -0.5
v 2 8 -0.5
v -8 9 0.5
v -7 9 0.5
v -8 9 -0.5
v -7 9 -0.5
v -7 10 0.5
v -6 10 0.5
v 1 10 0.5
v 2 10 0.5
v -7 10 -0.5
v -6 10 -0.5
v 1 10 -0.5
v 2 10 -0.5
v -6 11 0.5
v -5 11 0.5
v 0 11 0.5
v 1 11 0.5
v -6 11 -0.5
v -5 11 -0.5
v 0 11 -0.5
v 1 11 -0.5
v -5 12 0.5
v -4 12 0.5
v -3 12 0.5
v -2 12 0.5
v -1 12 0.5
v 0 12 0.5
v -5 12 -0.5
v -4 12 -0.5
v -3 12 -0.5
v -2 12 -0.5
v -1 12 -0.5
v 0 12 -0.5
v -4 13 0.5
v -3 13 0.5
v -2 13 0.5
v -1 13 0.5
v -4 13 -0.5
v -3 13 -0.5
v -2 13 -0.5
v -1 13 -0.5

# faces
f 3/2/1 2/2/1 1/2/1
f 4/2/1 2/2/1 3/2/1
f 7/2/1 6/2/1 5/2/1
f 8/2/1 6/2/1 7/2/1
f 11/2/1 10/2/1 9/2/1
f 12/2/1 10/2/1 11/2/1
f 15/2/1 14/2/1 13/2/1
f 16/2/1 14/2/1 15/2/1
f 19/2/1 18/2/1 17/2/1
f 20/2/1 18/2/1 19/2/1
f 23/2/1 22/2/1 21/2/1
f 24/2/1 22/2/1 23/2/1
f 27/2/1 26/2/1 25/2/1
f 28/2/1 26/2/1 27/2/1
f 31/2/1 30/2/1 29/2/1
f 32/2/1 30/2/1 31/2/1
f 35/2/1 34/2/1 33/2/1
f 36/2/1 34/2/1 35/2/1
f 39/2/1 38/2/1 37/2/1
f 40/2/1 38/2/1 39/2/1
f 43/2/1 42/2/1 41/2/1
f 44/2/1 42/2/1 43/2/1
f 47/2/1 46/2/1 45/2/1
f 48/2/1 46/2/1 47/2/1
f 51/2/1 50/2/1 49/2/1
f 52/2/1 50/2/1 51/2/1
f 55/2/1 54/2/1 53/2/1
f 56/2/1 54/2/1 55/2/1
f 59/2/1 58/2/1 57/2/1
f 60/2/1 58/2/1 59/2/1
f 63/2/1 62/2/1 61/2/1
f 64/2/1 62/2/1 63/2/1
f 67/2/1 66/2/1 65/2/1
f 68/2/1 66/2/1 67/2/1
f 71/2/1 70/2/1 69/2/1
f 72/2/1 70/2/1 71/2/1
f 75/2/1 74/2/1 73/2/1
f 76/2/1 74/2/1 75/2/1
f 77/2/2 78/2/2 79/2/2
f 79/2/2 78/2/2 80/2/2
f 81/2/2 82/2/2 83/2/2
f 83/2/2 82/2/2 84/2/2
f 85/2/2 86/2/2 87/2/2
f 87/2/2 86/2/2 88/2/2
f 89/2/2 90/2/2 91/2/2
f 91/2/2 90/2/2 92/2/2
f 93/2/2 94/2/2 95/2/2
f 95/2/2 94/2/2 96/2/2
f 97/2/2 98/2/2 99/2/2
f 99/2/2 98/2/2 100/2/2
f 101/2/2 102/2/2 103/2/2
f 103/2/2 102/2/2 104/2/2
f 105/2/2 106/2/2 107/2/2
f 107/2/2 106/2/2 108/2/2
f 109/2/2 110/2/2 111/2/2
f 111/2/2 110/2/2 112/2/2
f 113/2/2 114/2/2 115/2/2
f 115/2/2 114/2/2 116/2/2
f 117/2/2 118/2/2 119/2/2
f 119/2/2 118/2/2 120/2/2
f 121/2/2 122/2/2 123/2/2
f 123/2/2 122/2/2 124/2/2
f 125/2/2 126/2/2 127/2/2
f 127/2/2 126/2/2 128/2/2
f 129/2/2 130/2/2 131/2/2
f 131/2/2 130/2/2 132/2/2
f 133/2/2 134/2/2 135/2/2
f 135/2/2 134/2/2 136/2/2
f 137/2/2 138/2/2 139/2/2
f 139/2/2 138/2/2 140/2/2
f 144/2/3 142/2/3 141/2/3
f 145/2/3 142/2/3 144/2/3
f 146/2/3 142/2/3 145/2/3
f 149/2/3 144/2/3 143/2/3
f 150/5/3 145/5/3 144/5/3
f 150/2/3 144/2/3 149/2/3
f 151/3/3 146/3/3 145/3/3
f 151/5/3 145/5/3 150/5/3
f 152/2/3 147/2/3 146/2/3
f 152/3/3 146/3/3 151/3/3
f 153/2/3 147/2/3 152/2/3
f 156/2/3 149/2/3 148/2/3
f 157/5/3 150/5/3 149/5/3
f 157/2/3 149/2/3 156/2/3
f 158/4/3 151/4/3 150/4/3
f 158/5/3 150/5/3 157/5/3
f 158/4/3 152/4/3 151/4/3
f 159/2/3 154/2/3 153/2/3
f 162/2/3 156/2/3 155/2/3
f 163/5/3 157/5/3 156/5/3
f 163/2/3 156/2/3 162/2/3
f 164/4/3 158/4/3 157/4/3
f 164/5/3 157/5/3 163/5/3
f 165/2/3 160/2/3 159/2/3
f 165/2/3 159/2/3 153/2/3
f 166/2/3 160/2/3 165/2/3
f 169/2/3 162/2/3 161/2/3
f 170/5/3 163/5/3 162/5/3
f 170/2/3 162/2/3 169/2/3
f 171/4/3 164/4/3 163/4/3
f 171/5/3 163/5/3 170/5/3
f 172/4/3 152/4/3 158/4/3
f 172/4/3 164/4/3 171/4/3
f 172/4/3 158/4/3 164/4/3
f 172/3/3 153/3/3 152/3/3
f 173/2/3 165/2/3 153/2/3
f 173/3/3 153/3/3 172/3/3
f 174/1/3 166/1/3 165/1/3
f 174/2/3 165/2/3 173/2/3
f 175/2/3 167/2/3 166/2/3
f 175/1/3 166/1/3 174/1/3
f 176/2/3 167/2/3 175/2/3
f 178/2/3 169/2/3 168/2/3
f 179/5/3 170/5/3 169/5/3
f 179/2/3 169/2/3 178/2/3
f 180/4/3 171/4/3 170/4/3
f 180/5/3 170/5/3 179/5/3
f 180/4/3 173/4/3 172/4/3
f 180/4/3 172/4/3 171/4/3
f 181/4/3 173/4/3 180/4/3
f 182/4/3 173/4/3 181/4/3
f 183/3/3 174/3/3 173/3/3
f 183/4/3 173/4/3 182/4/3
f 184/2/3 175/2/3 174/2/3
f 184/3/3 174/3/3 183/3/3
f 185/2/3 175/2/3 184/2/3
f 187/5/3 179/5/3 178/5/3
f 187/2/3 178/2/3 177/2/3
f 188/3/3 180/3/3 179/3/3
f 188/5/3 179/5/3 187/5/3
f 189/2/3 181/2/3 180/2/3
f 189/3/3 180/3/3 188/3/3
f 190/5/3 182/5/3 181/5/3
f 190/2/3 181/2/3 189/2/3
f 191/4/3 183/4/3 182/4/3
f 191/5/3 182/5/3 190/5/3
f 191/4/3 184/4/3 183/4/3
f 192/4/3 184/4/3 191/4/3
f 193/4/3 184/4/3 192/4/3
f 194/3/3 185/3/3 184/3/3
f 194/4/3 184/4/3 193/4/3
f 195/2/3 186/2/3 185/2/3
f 195/3/3 185/3/3 194/3/3
f 196/2/3 186/2/3 195/2/3
f 197/2/3 187/2/3 177/2/3
f 197/3/3 188/3/3 187/3/3
f 198/2/3 189/2/3 188/2/3
f 198/3/3 188/3/3 197/3/3
f 199/2/3 189/2/3 198/2/3
f 201/2/3 191/2/3 190/2/3
f 202/5/3 192/5/3 191/5/3
f 202/2/3 191/2/3 201/2/3
f 203/4/3 193/4/3 192/4/3
f 203/5/3 192/5/3 202/5/3
f 204/3/3 194/3/3 193/3/3
f 204/4/3 193/4/3 203/4/3
f 205/2/3 195/2/3 194/2/3
f 205/3/3 194/3/3 204/3/3
f 206/2/3 195/2/3 205/2/3
f 207/2/3 197/2/3 177/2/3
f 207/2/3 198/2/3 197/2/3
f 208/2/3 198/2/3 207/2/3
f 210/2/3 201/2/3 200/2/3
f 211/1/3 202/1/3 201/1/3
f 211/2/3 201/2/3 210/2/3
f 212/2/3 203/2/3 202/2/3
f 212/1/3 202/1/3 211/1/3
f 213/3/3 204/3/3 203/3/3
f 213/2/3 203/2/3 212/2/3
f 214/2/3 205/2/3 204/2/3
f 214/3/3 204/3/3 213/3/3
f 215/2/3 205/2/3 214/2/3
f 217/2/3 210/2/3 209/2/3
f 218/1/3 211/1/3 210/1/3
f 218/2/3 210/2/3 217/2/3
f 219/2/3 212/2/3 211/2/3
f 219/1/3 211/1/3 218/1/3
f 220/2/3 212/2/3 219/2/3
f 221/2/3 214/2/3 213/2/3
f 222/2/3 214/2/3 221/2/3
f 224/2/3 217/2/3 216/2/3
f 225/1/3 218/1/3 217/1/3
f 225/2/3 217/2/3 224/2/3
f 226/2/3 219/2/3 218/2/3
f 226/1/3 218/1/3 225/1/3
f 227/2/3 219/2/3 226/2/3
f 229/2/3 224/2/3 223/2/3
f 230/1/3 225/1/3 224/1/3
f 230/2/3 224/2/3 229/2/3
f 231/2/3 226/2/3 225/2/3
f 231/1/3 225/1/3 230/1/3
f 232/2/3 226/2/3 231/2/3
f 234/2/3 229/2/3 228/2/3
f 235/1/3 230/1/3 229/1/3
f 235/2/3 229/2/3 234/2/3
f 236/2/3 231/2/3 230/2/3
f 236/1/3 230/1/3 235/1/3
f 237/2/3 231/2/3 236/2/3
f 239/2/3 234/2/3 233/2/3
f 240/1/3 235/1/3 234/1/3
f 240/2/3 234/2/3 239/2/3
f 241/2/3 236/2/3 235/2/3
f 241/1/3 235/1/3 240/1/3
f 242/2/3 236/2/3 241/2/3
f 243/2/3 239/2/3 238/2/3
f 243/1/3 240/1/3 239/1/3
f 244/2/3 241/2/3 240/2/3
f 244/1/3 240/1/3 243/1/3
f 245/2/3 241/2/3 244/2/3
f 246/2/3 243/2/3 238/2/3
f 246/2/3 244/2/3 243/2/3
f 247/2/3 244/2/3 246/2/3
f 248/2/4 249/2/4 251/2/4
f 251/2/4 249/2/4 252/2/4
f 252/2/4 249/2/4 253/2/4
f 250/2/4 251/2/4 256/2/4
f 251/5/4 252/5/4 257/5/4
f 256/2/4 251/2/4 257/2/4
f 252/3/4 253/3/4 258/3/4
f 257/5/4 252/5/4 258/5/4
f 253/2/4 254/2/4 259/2/4
f 258/3/4 253/3/4 259/3/4
f 259/2/4 254/2/4 260/2/4
f 255/2/4 256/2/4 263/2/4
f 256/5/4 257/5/4 264/5/4
f 263/2/4 256/2/4 264/2/4
f 257/4/4 258/4/4 265/4/4
f 264/5/4 257/5/4 265/5/4
f 258/4/4 259/4/4 265/4/4
f 260/2/4 261/2/4 266/2/4
f 262/2/4 263/2/4 269/2/4
f 263/5/4 264/5/4 270/5/4
f 269/2/4 263/2/4 270/2/4
f 264/4/4 265/4/4 271/4/4
f 270/5/4 264/5/4 271/5/4
f 266/2/4 267/2/4 272/2/4
f 260/2/4 266/2/4 272/2/4
f 272/2/4 267/2/4 273/2/4
f 268/2/4 269/2/4 276/2/4
f 269/5/4 270/5/4 277/5/4
f 276/2/4 269/2/4 277/2/4
f 270/4/4 271/4/4 278/4/4
f 277/5/4 270/5/4 278/5/4
f 265/4/4 259/4/4 279/4/4
f 278/4/4 271/4/4 279/4/4
f 271/4/4 265/4/4 279/4/4
f 259/3/4 260/3/4 279/3/4
f 260/2/4 272/2/4 280/2/4
f 279/3/4 260/3/4 280/3/4
f 272/1/4 273/1/4 281/1/4
f 280/2/4 272/2/4 281/2/4
f 273/2/4 274/2/4 282/2/4
f 281/1/4 273/1/4 282/1/4
f 282/2/4 274/2/4 283/2/4
f 275/2/4 276/2/4 285/2/4
f 276/5/4 277/5/4 286/5/4
f 285/2/4 276/2/4 286/2/4
f 277/4/4 278/4/4 287/4/4
f 286/5/4 277/5/4 287/5/4
f 279/4/4 280/4/4 287/4/4
f 278/4/4 279/4/4 287/4/4
f 287/4/4 280/4/4 288/4/4
f 288/4/4 280/4/4 289/4/4
f 280/3/4 281/3/4 290/3/4
f 289/4/4 280/4/4 290/4/4
f 281/2/4 282/2/4 291/2/4
f 290/3/4 281/3/4 291/3/4
f 291/2/4 282/2/4 292/2/4
f 285/5/4 286/5/4 294/5/4
f 284/2/4 285/2/4 294/2/4
f 286/3/4 287/3/4 295/3/4
f 294/5/4 286/5/4 295/5/4
f 287/2/4 288/2/4 296/2/4
f 295/3/4 287/3/4 296/3/4
f 288/5/4 289/5/4 297/5/4
f 296/2/4 288/2/4 297/2/4
f 289/4/4 290/4/4 298/4/4
f 297/5/4 289/5/4 298/5/4
f 290/4/4 291/4/4 298/4/4
f 298/4/4 291/4/4 299/4/4
f 299/4/4 291/4/4 300/4/4
f 291/3/4 292/3/4 301/3/4
f 300/4/4 291/4/4 301/4/4
f 292/2/4 293/2/4 302/2/4
f 301/3/4 292/3/4 302/3/4
f 302/2/4 293/2/4 303/2/4
f 284/2/4 294/2/4 304/2/4
f 294/3/4 295/3/4 304/3/4
f 295/2/4 296/2/4 305/2/4
f 304/3/4 295/3/4 305/3/4
f 305/2/4 296/2/4 306/2/4
f 297/2/4 298/2/4 308/2/4
f 298/5/4 299/5/4 309/5/4
f 308/2/4 298/2/4 309/2/4
f 299/4/4 300/4/4 310/4/4
f 309/5/4 299/5/4 310/5/4
f 300/3/4 301/3/4 311/3/4
f 310/4/4 300/4/4 311/4/4
f 301/2/4 302/2/4 312/2/4
f 311/3/4 301/3/4 312/3/4
f 312/2/4 302/2/4 313/2/4
f 284/2/4 304/2/4 314/2/4
f 304/2/4 305/2/4 314/2/4
f 314/2/4 305/2/4 315/2/4
f 307/2/4 308/2/4 317/2/4
f 308/1/4 309/1/4 318/1/4
f 317/2/4 308/2/4 318/2/4
f 309/2/4 310/2/4 319/2/4
f 318/1/4 309/1/4 319/1/4
f 310/3/4 311/3/4 320/3/4
f 319/2/4 310/2/4 320/2/4
f 311/2/4 312/2/4 321/2/4
f 320/3/4 311/3/4 321/3/4
f 321/2/4 312/2/4 322/2/4
f 316/2/4 317/2/4 324/2/4
f 317/1/4 318/1/4 325/1/4
f 324/2/4 317/2/4 325/2/4
f 318/2/4 319/2/4 326/2/4
f 325/1/4 318/1/4 326/1/4
f 326/2/4 319/2/4 327/2/4
f 320/2/4 321/2/4 328/2/4
f 328/2/4 321/2/4 329/2/4
f 323/2/4 324/2/4 331/2/4
f 324/1/4 325/1/4 332/1/4
f 331/2/4 324/2/4 332/2/4
f 325/2/4 326/2/4 333/2/4
f 332/1/4 325/1/4 333/1/4
f 333/2/4 326/2/4 334/2/4
f 330/2/4 331/2/4 336/2/4
f 331/1/4 332/1/4 337/1/4
f 336/2/4 331/2/4 337/2/4
f 332/2/4 333/2/4 338/2/4
f 337/1/4 332/1/4 338/1/4
f 338/2/4 333/2/4 339/2/4
f 335/2/4 336/2/4 341/2/4
f 336/1/4 337/1/4 342/1/4
f 341/2/4 336/2/4 342/2/4
f 337/2/4 338/2/4 343/2/4
f 342/1/4 337/1/4 343/1/4
f 343/2/4 338/2/4 344/2/4
f 340/2/4 341/2/4 346/2/4
f 341/1/4 342/1/4 347/1/4
f 346/2/4 341/2/4 347/2/4
f 342/2/4 343/2/4 348/2/4
f 347/1/4 342/1/4 348/1/4
f 348/2/4 343/2/4 349/2/4
f 345/2/4 346/2/4 350/2/4
f 346/1/4 347/1/4 350/1/4
f 347/2/4 348/2/4 351/2/4
f 350/1/4 347/1/4 351/1/4
f 351/2/4 348/2/4 352/2/4
f 345/2/4 350/2/4 353/2/4
f 350/2/4 351/2/4 353/2/4
f 353/2/4 351/2/4 354/2/4
f 357/2/5 356/2/5 355/2/5
f 358/2/5 356/2/5 357/2/5
f 363/2/5 360/2/5 359/2/5
f 364/2/5 360/2/5 363/2/5
f 365/2/5 362/2/5 361/2/5
f 366/2/5 362/2/5 365/2/5
f 371/2/5 368/2/5 367/2/5
f 372/2/5 368/2/5 371/2/5
f 373/2/5 370/2/5 369/2/5
f 374/2/5 370/2/5 373/2/5
f 379/2/5 376/2/5 375/2/5
f 380/2/5 376/2/5 379/2/5
f 381/2/5 378/2/5 377/2/5
f 382/2/5 378/2/5 381/2/5
f 387/2/5 384/2/5 383/2/5
f 388/2/5 384/2/5 387/2/5
f 389/2/5 386/2/5 385/2/5
f 390/2/5 386/2/5 389/2/5
f 395/2/5 392/2/5 391/2/5
f 396/2/5 392/2/5 395/2/5
f 397/2/5 394/2/5 393/2/5
f 398/2/5 394/2/5 397/2/5
f 403/2/5 400/2/5 399/2/5
f 404/2/5 400/2/5 403/2/5
f 405/2/5 402/2/5 401/2/5
f 406/2/5 402/2/5 405/2/5
f 411/2/5 408/2/5 407/2/5
f 412/2/5 408/2/5 411/2/5
f 413/2/5 410/2/5 409/2/5
f 414/2/5 410/2/5 413/2/5
f 417/2/5 416/2/5 415/2/5
f 418/2/5 416/2/5 417/2/5
f 419/2/6 420/2/6 421/2/6
f 421/2/6 420/2/6 422/2/6
f 423/2/6 424/2/6 427/2/6
f 427/2/6 424/2/6 428/2/6
f 425/2/6 426/2/6 429/2/6
f 429/2/6 426/2/6 430/2/6
f 431/2/6 432/2/6 435/2/6
f 435/2/6 432/2/6 436/2/6
f 433/2/6 434/2/6 437/2/6
f 437/2/6 434/2/6 438/2/6
f 439/2/6 440/2/6 441/2/6
f 441/2/6 440/2/6 442/2/6
f 443/2/6 444/2/6 445/2/6
f 445/2/6 444/2/6 446/2/6
f 447/2/6 448/2/6 449/2/6
f 449/2/6 448/2/6 450/2/6
f 451/2/6 452/2/6 453/2/6
f 453/2/6 452/2/6 454/2/6
f 455/2/6 456/2/6 457/2/6
f 457/2/6 456/2/6 458/2/6
f 459/2/6 460/2/6 463/2/6
f 463/2/6 460/2/6 464/2/6
f 461/2/6 462/2/6 465/2/6
f 465/2/6 462/2/6 466/2/6
f 467/2/6 468/2/6 471/2/6
f 471/2/6 468/2/6 472/2/6
f 469/2/6 470/2/6 473/2/6
f 473/2/6 470/2/6 474/2/6
f 475/2/6 476/2/6 481/2/6
f 481/2/6 476/2/6 482/2/6
f 477/2/6 478/2/6 483/2/6
f 483/2/6 478/2/6 484/2/6
f 479/2/6 480/2/6 485/2/6
f 485/2/6 480/2/6 486/2/6
f 487/2/6 488/2/6 491/2/6
f 491/2/6 488/2/6 492/2/6
f 489/2/6 490/2/6 493/2/6
f 493/2/6 490/2/6 494/2/6
