# MagicaVoxel @ ephtracy

# material
mtllib battlehammer.mtl
usemtl palette

# normals
vn -1 0 0
vn 1 0 0
vn 0 0 1
vn 0 0 -1
vn 0 -1 0
vn 0 1 0

# texcoords
vt 0.0839844 0.5
vt 0.673828 0.5
vt 0.849609 0.5
vt 0.857422 0.5
vt 0.865234 0.5
vt 0.876953 0.5

# verts
v -8 8 0.5
v -8 8 -0.5
v -8 11 0.5
v -8 11 -0.5
v -7 6 0.5
v -7 6 -0.5
v -7 8 0.5
v -7 8 -0.5
v -7 11 0.5
v -7 11 -0.5
v -7 12 0.5
v -7 12 -0.5
v -6 12 0.5
v -6 12 -0.5
v -6 14 0.5
v -6 14 -0.5
v -5 5 0.5
v -5 5 -0.5
v -5 6 0.5
v -5 6 -0.5
v -4 14 0.5
v -4 14 -0.5
v -4 15 0.5
v -4 15 -0.5
v -3 15 0.5
v -3 15 -0.5
v -3 16 0.5
v -3 16 -0.5
v 0 6 0.5
v 0 6 -0.5
v 0 7 0.5
v 0 7 -0.5
v 1 5 0.5
v 1 5 -0.5
v 1 6 0.5
v 1 6 -0.5
v 2 4 0.5
v 2 4 -0.5
v 2 5 0.5
v 2 5 -0.5
v 3 3 0.5
v 3 3 -0.5
v 3 4 0.5
v 3 4 -0.5
v 4 2 0.5
v 4 2 -0.5
v 4 3 0.5
v 4 3 -0.5
v 5 0 0.5
v 5 0 -0.5
v 5 2 0.5
v 5 2 -0.5
v -3 5 0.5
v -3 5 -0.5
v -3 6 0.5
v -3 6 -0.5
v -2 6 0.5
v -2 6 -0.5
v -2 7 0.5
v -2 7 -0.5
v 0 15 0.5
v 0 15 -0.5
v 0 16 0.5
v 0 16 -0.5
v 1 8 0.5
v 1 8 -0.5
v 1 10 0.5
v 1 10 -0.5
v 2 7 0.5
v 2 7 -0.5
v 2 8 0.5
v 2 8 -0.5
v 2 10 0.5
v 2 10 -0.5
v 2 11 0.5
v 2 11 -0.5
v 2 13 0.5
v 2 13 -0.5
v 2 15 0.5
v 2 15 -0.5
v 3 6 0.5
v 3 6 -0.5
v 3 7 0.5
v 3 7 -0.5
v 3 11 0.5
v 3 11 -0.5
v 3 13 0.5
v 3 13 -0.5
v 4 5 0.5
v 4 5 -0.5
v 4 6 0.5
v 4 6 -0.5
v 5 4 0.5
v 5 4 -0.5
v 5 5 0.5
v 5 5 -0.5
v 6 3 0.5
v 6 3 -0.5
v 6 4 0.5
v 6 4 -0.5
v 7 0 0.5
v 7 0 -0.5
v 7 1 0.5
v 7 1 -0.5
v 8 1 0.5
v 8 1 -0.5
v 8 3 0.5
v 8 3 -0.5
v -8 8 0.5
v -8 11 0.5
v -7 6 0.5
v -7 8 0.5
v -7 9 0.5
v -7 10 0.5
v -7 11 0.5
v -7 12 0.5
v -6 7 0.5
v -6 8 0.5
v -6 9 0.5
v -6 10 0.5
v -6 11 0.5
v -6 12 0.5
v -6 14 0.5
v -5 5 0.5
v -5 6 0.5
v -5 7 0.5
v -5 8 0.5
v -5 11 0.5
v -5 12 0.5
v -5 13 0.5
v -4 9 0.5
v -4 11 0.5
v -4 12 0.5
v -4 13 0.5
v -4 14 0.5
v -4 15 0.5
v -3 5 0.5
v -3 6 0.5
v -3 7 0.5
v -3 8 0.5
v -3 10 0.5
v -3 11 0.5
v -3 12 0.5
v -3 13 0.5
v -3 14 0.5
v -3 15 0.5
v -3 16 0.5
v -2 6 0.5
v -2 7 0.5
v -2 8 0.5
v -2 9 0.5
v -2 10 0.5
v -2 11 0.5
v -1 10 0.5
v -1 12 0.5
v 0 6 0.5
v 0 7 0.5
v 0 8 0.5
v 0 9 0.5
v 0 10 0.5
v 0 11 0.5
v 0 13 0.5
v 0 14 0.5
v 0 15 0.5
v 0 16 0.5
v 1 5 0.5
v 1 6 0.5
v 1 7 0.5
v 1 8 0.5
v 1 10 0.5
v 1 11 0.5
v 1 12 0.5
v 1 13 0.5
v 1 14 0.5
v 2 4 0.5
v 2 5 0.5
v 2 6 0.5
v 2 7 0.5
v 2 8 0.5
v 2 10 0.5
v 2 11 0.5
v 2 12 0.5
v 2 13 0.5
v 2 15 0.5
v 3 3 0.5
v 3 4 0.5
v 3 5 0.5
v 3 6 0.5
v 3 7 0.5
v 3 11 0.5
v 3 13 0.5
v 4 2 0.5
v 4 3 0.5
v 4 4 0.5
v 4 5 0.5
v 4 6 0.5
v 5 0 0.5
v 5 2 0.5
v 5 3 0.5
v 5 4 0.5
v 5 5 0.5
v 6 1 0.5
v 6 2 0.5
v 6 3 0.5
v 6 4 0.5
v 7 0 0.5
v 7 1 0.5
v 7 2 0.5
v 8 1 0.5
v 8 3 0.5
v -8 8 -0.5
v -8 11 -0.5
v -7 6 -0.5
v -7 8 -0.5
v -7 9 -0.5
v -7 10 -0.5
v -7 11 -0.5
v -7 12 -0.5
v -6 7 -0.5
v -6 8 -0.5
v -6 9 -0.5
v -6 10 -0.5
v -6 11 -0.5
v -6 12 -0.5
v -6 14 -0.5
v -5 5 -0.5
v -5 6 -0.5
v -5 7 -0.5
v -5 8 -0.5
v -5 11 -0.5
v -5 12 -0.5
v -5 13 -0.5
v -4 9 -0.5
v -4 11 -0.5
v -4 12 -0.5
v -4 13 -0.5
v -4 14 -0.5
v -4 15 -0.5
v -3 5 -0.5
v -3 6 -0.5
v -3 7 -0.5
v -3 8 -0.5
v -3 10 -0.5
v -3 11 -0.5
v -3 12 -0.5
v -3 13 -0.5
v -3 14 -0.5
v -3 15 -0.5
v -3 16 -0.5
v -2 6 -0.5
v -2 7 -0.5
v -2 8 -0.5
v -2 9 -0.5
v -2 10 -0.5
v -2 11 -0.5
v -1 10 -0.5
v -1 12 -0.5
v 0 6 -0.5
v 0 7 -0.5
v 0 8 -0.5
v 0 9 -0.5
v 0 10 -0.5
v 0 11 -0.5
v 0 13 -0.5
v 0 14 -0.5
v 0 15 -0.5
v 0 16 -0.5
v 1 5 -0.5
v 1 6 -0.5
v 1 7 -0.5
v 1 8 -0.5
v 1 10 -0.5
v 1 11 -0.5
v 1 12 -0.5
v 1 13 -0.5
v 1 14 -0.5
v 2 4 -0.5
v 2 5 -0.5
v 2 6 -0.5
v 2 7 -0.5
v 2 8 -0.5
v 2 10 -0.5
v 2 11 -0.5
v 2 12 -0.5
v 2 13 -0.5
v 2 15 -0.5
v 3 3 -0.5
v 3 4 -0.5
v 3 5 -0.5
v 3 6 -0.5
v 3 7 -0.5
v 3 11 -0.5
v 3 13 -0.5
v 4 2 -0.5
v 4 3 -0.5
v 4 4 -0.5
v 4 5 -0.5
v 4 6 -0.5
v 5 0 -0.5
v 5 2 -0.5
v 5 3 -0.5
v 5 4 -0.5
v 5 5 -0.5
v 6 1 -0.5
v 6 2 -0.5
v 6 3 -0.5
v 6 4 -0.5
v 7 0 -0.5
v 7 1 -0.5
v 7 2 -0.5
v 8 1 -0.5
v 8 3 -0.5
v 5 0 0.5
v 7 0 0.5
v 5 0 -0.5
v 7 0 -0.5
v 7 1 0.5
v 8 1 0.5
v 7 1 -0.5
v 8 1 -0.5
v 4 2 0.5
v 5 2 0.5
v 4 2 -0.5
v 5 2 -0.5
v 3 3 0.5
v 4 3 0.5
v 3 3 -0.5
v 4 3 -0.5
v 2 4 0.5
v 3 4 0.5
v 2 4 -0.5
v 3 4 -0.5
v -5 5 0.5
v -3 5 0.5
v 1 5 0.5
v 2 5 0.5
v -5 5 -0.5
v -3 5 -0.5
v 1 5 -0.5
v 2 5 -0.5
v -7 6 0.5
v -5 6 0.5
v -3 6 0.5
v -2 6 0.5
v 0 6 0.5
v 1 6 0.5
v -7 6 -0.5
v -5 6 -0.5
v -3 6 -0.5
v -2 6 -0.5
v 0 6 -0.5
v 1 6 -0.5
v -2 7 0.5
v 0 7 0.5
v -2 7 -0.5
v 0 7 -0.5
v -8 8 0.5
v -7 8 0.5
v -8 8 -0.5
v -7 8 -0.5
v 1 10 0.5
v 2 10 0.5
v 1 10 -0.5
v 2 10 -0.5
v 2 11 0.5
v 3 11 0.5
v 2 11 -0.5
v 3 11 -0.5
v 6 3 0.5
v 8 3 0.5
v 6 3 -0.5
v 8 3 -0.5
v 5 4 0.5
v 6 4 0.5
v 5 4 -0.5
v 6 4 -0.5
v 4 5 0.5
v 5 5 0.5
v 4 5 -0.5
v 5 5 -0.5
v 3 6 0.5
v 4 6 0.5
v 3 6 -0.5
v 4 6 -0.5
v 2 7 0.5
v 3 7 0.5
v 2 7 -0.5
v 3 7 -0.5
v 1 8 0.5
v 2 8 0.5
v 1 8 -0.5
v 2 8 -0.5
v -8 11 0.5
v -7 11 0.5
v -8 11 -0.5
v -7 11 -0.5
v -7 12 0.5
v -6 12 0.5
v -7 12 -0.5
v -6 12 -0.5
v 2 13 0.5
v 3 13 0.5
v 2 13 -0.5
v 3 13 -0.5
v -6 14 0.5
v -4 14 0.5
v -6 14 -0.5
v -4 14 -0.5
v -4 15 0.5
v -3 15 0.5
v 0 15 0.5
v 2 15 0.5
v -4 15 -0.5
v -3 15 -0.5
v 0 15 -0.5
v 2 15 -0.5
v -3 16 0.5
v 0 16 0.5
v -3 16 -0.5
v 0 16 -0.5

# faces
f 3/6/1 2/6/1 1/6/1
f 4/6/1 2/6/1 3/6/1
f 7/6/1 6/6/1 5/6/1
f 8/6/1 6/6/1 7/6/1
f 11/6/1 10/6/1 9/6/1
f 12/6/1 10/6/1 11/6/1
f 15/6/1 14/6/1 13/6/1
f 16/6/1 14/6/1 15/6/1
f 19/6/1 18/6/1 17/6/1
f 20/6/1 18/6/1 19/6/1
f 23/6/1 22/6/1 21/6/1
f 24/6/1 22/6/1 23/6/1
f 27/6/1 26/6/1 25/6/1
f 28/6/1 26/6/1 27/6/1
f 31/6/1 30/6/1 29/6/1
f 32/6/1 30/6/1 31/6/1
f 35/6/1 34/6/1 33/6/1
f 36/6/1 34/6/1 35/6/1
f 39/6/1 38/6/1 37/6/1
f 40/6/1 38/6/1 39/6/1
f 43/6/1 42/6/1 41/6/1
f 44/6/1 42/6/1 43/6/1
f 47/6/1 46/6/1 45/6/1
f 48/6/1 46/6/1 47/6/1
f 51/6/1 50/6/1 49/6/1
f 52/6/1 50/6/1 51/6/1
f 53/6/2 54/6/2 55/6/2
f 55/6/2 54/6/2 56/6/2
f 57/6/2 58/6/2 59/6/2
f 59/6/2 58/6/2 60/6/2
f 61/6/2 62/6/2 63/6/2
f 63/6/2 62/6/2 64/6/2
f 65/6/2 66/6/2 67/6/2
f 67/6/2 66/6/2 68/6/2
f 69/6/2 70/6/2 71/6/2
f 71/6/2 70/6/2 72/6/2
f 73/6/2 74/6/2 75/6/2
f 75/6/2 74/6/2 76/6/2
f 77/6/2 78/6/2 79/6/2
f 79/6/2 78/6/2 80/6/2
f 81/6/2 82/6/2 83/6/2
f 83/6/2 82/6/2 84/6/2
f 85/6/2 86/6/2 87/6/2
f 87/6/2 86/6/2 88/6/2
f 89/6/2 90/6/2 91/6/2
f 91/6/2 90/6/2 92/6/2
f 93/6/2 94/6/2 95/6/2
f 95/6/2 94/6/2 96/6/2
f 97/6/2 98/6/2 99/6/2
f 99/6/2 98/6/2 100/6/2
f 101/6/2 102/6/2 103/6/2
f 103/6/2 102/6/2 104/6/2
f 105/6/2 106/6/2 107/6/2
f 107/6/2 106/6/2 108/6/2
f 112/6/3 110/6/3 109/6/3
f 113/6/3 110/6/3 112/6/3
f 114/6/3 110/6/3 113/6/3
f 115/6/3 110/6/3 114/6/3
f 117/6/3 112/6/3 111/6/3
f 118/5/3 113/5/3 112/5/3
f 118/6/3 112/6/3 117/6/3
f 119/4/3 114/4/3 113/4/3
f 119/5/3 113/5/3 118/5/3
f 120/3/3 115/3/3 114/3/3
f 120/4/3 114/4/3 119/4/3
f 121/6/3 116/6/3 115/6/3
f 121/3/3 115/3/3 120/3/3
f 122/6/3 116/6/3 121/6/3
f 125/6/3 117/6/3 111/6/3
f 126/5/3 118/5/3 117/5/3
f 126/6/3 117/6/3 125/6/3
f 127/4/3 120/4/3 119/4/3
f 127/5/3 118/5/3 126/5/3
f 127/4/3 119/4/3 118/4/3
f 127/4/3 121/4/3 120/4/3
f 128/3/3 122/3/3 121/3/3
f 128/4/3 121/4/3 127/4/3
f 129/6/3 123/6/3 122/6/3
f 129/3/3 122/3/3 128/3/3
f 130/6/3 123/6/3 129/6/3
f 131/4/3 128/4/3 127/4/3
f 131/4/3 127/4/3 126/4/3
f 131/4/3 129/4/3 128/4/3
f 132/4/3 129/4/3 131/4/3
f 133/3/3 130/3/3 129/3/3
f 133/4/3 129/4/3 132/4/3
f 134/6/3 123/6/3 130/6/3
f 134/3/3 130/3/3 133/3/3
f 135/6/3 123/6/3 134/6/3
f 137/6/3 125/6/3 124/6/3
f 138/5/3 126/5/3 125/5/3
f 138/6/3 125/6/3 137/6/3
f 139/4/3 131/4/3 126/4/3
f 139/5/3 126/5/3 138/5/3
f 140/4/3 131/4/3 139/4/3
f 141/5/3 132/5/3 131/5/3
f 142/4/3 133/4/3 132/4/3
f 142/5/3 132/5/3 141/5/3
f 142/4/3 134/4/3 133/4/3
f 143/4/3 134/4/3 142/4/3
f 144/3/3 135/3/3 134/3/3
f 144/4/3 134/4/3 143/4/3
f 145/6/3 136/6/3 135/6/3
f 145/3/3 135/3/3 144/3/3
f 146/6/3 136/6/3 145/6/3
f 148/6/3 139/6/3 138/6/3
f 149/5/3 140/5/3 139/5/3
f 149/6/3 139/6/3 148/6/3
f 150/4/3 131/4/3 140/4/3
f 150/5/3 140/5/3 149/5/3
f 151/5/3 141/5/3 131/5/3
f 151/4/3 131/4/3 150/4/3
f 152/1/3 142/1/3 141/1/3
f 152/5/3 141/5/3 151/5/3
f 153/3/3 143/3/3 142/3/3
f 153/1/3 142/1/3 152/1/3
f 154/4/3 152/4/3 151/4/3
f 154/3/3 153/3/3 152/3/3
f 155/4/3 144/4/3 143/4/3
f 155/3/3 153/3/3 154/3/3
f 155/3/3 143/3/3 153/3/3
f 155/4/3 145/4/3 144/4/3
f 157/6/3 150/6/3 149/6/3
f 158/5/3 151/5/3 150/5/3
f 158/6/3 150/6/3 157/6/3
f 159/4/3 154/4/3 151/4/3
f 159/5/3 151/5/3 158/5/3
f 159/4/3 155/4/3 154/4/3
f 160/4/3 155/4/3 159/4/3
f 161/4/3 155/4/3 160/4/3
f 162/4/3 145/4/3 155/4/3
f 162/4/3 155/4/3 161/4/3
f 163/3/3 146/3/3 145/3/3
f 163/4/3 145/4/3 162/4/3
f 164/6/3 147/6/3 146/6/3
f 164/3/3 146/3/3 163/3/3
f 165/6/3 147/6/3 164/6/3
f 167/6/3 157/6/3 156/6/3
f 168/2/3 158/2/3 157/2/3
f 168/6/3 157/6/3 167/6/3
f 169/6/3 159/6/3 158/6/3
f 169/2/3 158/2/3 168/2/3
f 169/6/3 160/6/3 159/6/3
f 170/5/3 161/5/3 160/5/3
f 170/6/3 160/6/3 169/6/3
f 171/4/3 162/4/3 161/4/3
f 171/5/3 161/5/3 170/5/3
f 172/4/3 162/4/3 171/4/3
f 173/3/3 163/3/3 162/3/3
f 173/4/3 162/4/3 172/4/3
f 174/6/3 164/6/3 163/6/3
f 174/3/3 163/3/3 173/3/3
f 176/6/3 167/6/3 166/6/3
f 177/2/3 168/2/3 167/2/3
f 177/6/3 167/6/3 176/6/3
f 178/6/3 169/6/3 168/6/3
f 178/2/3 168/2/3 177/2/3
f 179/6/3 169/6/3 178/6/3
f 180/6/3 171/6/3 170/6/3
f 181/5/3 172/5/3 171/5/3
f 181/6/3 171/6/3 180/6/3
f 182/3/3 173/3/3 172/3/3
f 182/5/3 172/5/3 181/5/3
f 183/6/3 174/6/3 173/6/3
f 183/3/3 173/3/3 182/3/3
f 184/6/3 164/6/3 174/6/3
f 184/6/3 174/6/3 183/6/3
f 186/6/3 176/6/3 175/6/3
f 187/2/3 177/2/3 176/2/3
f 187/6/3 176/6/3 186/6/3
f 188/6/3 178/6/3 177/6/3
f 188/2/3 177/2/3 187/2/3
f 189/6/3 178/6/3 188/6/3
f 190/6/3 182/6/3 181/6/3
f 190/6/3 183/6/3 182/6/3
f 191/6/3 183/6/3 190/6/3
f 193/6/3 186/6/3 185/6/3
f 194/2/3 187/2/3 186/2/3
f 194/6/3 186/6/3 193/6/3
f 195/6/3 188/6/3 187/6/3
f 195/2/3 187/2/3 194/2/3
f 196/6/3 188/6/3 195/6/3
f 198/6/3 193/6/3 192/6/3
f 199/2/3 194/2/3 193/2/3
f 199/6/3 193/6/3 198/6/3
f 200/6/3 195/6/3 194/6/3
f 200/2/3 194/2/3 199/2/3
f 201/6/3 195/6/3 200/6/3
f 202/6/3 198/6/3 197/6/3
f 203/2/3 199/2/3 198/2/3
f 203/6/3 198/6/3 202/6/3
f 204/6/3 200/6/3 199/6/3
f 204/2/3 199/2/3 203/2/3
f 205/6/3 200/6/3 204/6/3
f 206/6/3 202/6/3 197/6/3
f 207/2/3 203/2/3 202/2/3
f 207/6/3 202/6/3 206/6/3
f 208/6/3 204/6/3 203/6/3
f 208/2/3 203/2/3 207/2/3
f 209/6/3 208/6/3 207/6/3
f 210/6/3 204/6/3 208/6/3
f 210/6/3 208/6/3 209/6/3
f 211/6/4 212/6/4 214/6/4
f 214/6/4 212/6/4 215/6/4
f 215/6/4 212/6/4 216/6/4
f 216/6/4 212/6/4 217/6/4
f 213/6/4 214/6/4 219/6/4
f 214/5/4 215/5/4 220/5/4
f 219/6/4 214/6/4 220/6/4
f 215/4/4 216/4/4 221/4/4
f 220/5/4 215/5/4 221/5/4
f 216/3/4 217/3/4 222/3/4
f 221/4/4 216/4/4 222/4/4
f 217/6/4 218/6/4 223/6/4
f 222/3/4 217/3/4 223/3/4
f 223/6/4 218/6/4 224/6/4
f 213/6/4 219/6/4 227/6/4
f 219/5/4 220/5/4 228/5/4
f 227/6/4 219/6/4 228/6/4
f 221/4/4 222/4/4 229/4/4
f 228/5/4 220/5/4 229/5/4
f 220/4/4 221/4/4 229/4/4
f 222/4/4 223/4/4 229/4/4
f 223/3/4 224/3/4 230/3/4
f 229/4/4 223/4/4 230/4/4
f 224/6/4 225/6/4 231/6/4
f 230/3/4 224/3/4 231/3/4
f 231/6/4 225/6/4 232/6/4
f 229/4/4 230/4/4 233/4/4
f 228/4/4 229/4/4 233/4/4
f 230/4/4 231/4/4 233/4/4
f 233/4/4 231/4/4 234/4/4
f 231/3/4 232/3/4 235/3/4
f 234/4/4 231/4/4 235/4/4
f 232/6/4 225/6/4 236/6/4
f 235/3/4 232/3/4 236/3/4
f 236/6/4 225/6/4 237/6/4
f 226/6/4 227/6/4 239/6/4
f 227/5/4 228/5/4 240/5/4
f 239/6/4 227/6/4 240/6/4
f 228/4/4 233/4/4 241/4/4
f 240/5/4 228/5/4 241/5/4
f 241/4/4 233/4/4 242/4/4
f 233/5/4 234/5/4 243/5/4
f 234/4/4 235/4/4 244/4/4
f 243/5/4 234/5/4 244/5/4
f 235/4/4 236/4/4 244/4/4
f 244/4/4 236/4/4 245/4/4
f 236/3/4 237/3/4 246/3/4
f 245/4/4 236/4/4 246/4/4
f 237/6/4 238/6/4 247/6/4
f 246/3/4 237/3/4 247/3/4
f 247/6/4 238/6/4 248/6/4
f 240/6/4 241/6/4 250/6/4
f 241/5/4 242/5/4 251/5/4
f 250/6/4 241/6/4 251/6/4
f 242/4/4 233/4/4 252/4/4
f 251/5/4 242/5/4 252/5/4
f 233/5/4 243/5/4 253/5/4
f 252/4/4 233/4/4 253/4/4
f 243/1/4 244/1/4 254/1/4
f 253/5/4 243/5/4 254/5/4
f 244/3/4 245/3/4 255/3/4
f 254/1/4 244/1/4 255/1/4
f 253/4/4 254/4/4 256/4/4
f 254/3/4 255/3/4 256/3/4
f 245/4/4 246/4/4 257/4/4
f 256/3/4 255/3/4 257/3/4
f 255/3/4 245/3/4 257/3/4
f 246/4/4 247/4/4 257/4/4
f 251/6/4 252/6/4 259/6/4
f 252/5/4 253/5/4 260/5/4
f 259/6/4 252/6/4 260/6/4
f 253/4/4 256/4/4 261/4/4
f 260/5/4 253/5/4 261/5/4
f 256/4/4 257/4/4 261/4/4
f 261/4/4 257/4/4 262/4/4
f 262/4/4 257/4/4 263/4/4
f 257/4/4 247/4/4 264/4/4
f 263/4/4 257/4/4 264/4/4
f 247/3/4 248/3/4 265/3/4
f 264/4/4 247/4/4 265/4/4
f 248/6/4 249/6/4 266/6/4
f 265/3/4 248/3/4 266/3/4
f 266/6/4 249/6/4 267/6/4
f 258/6/4 259/6/4 269/6/4
f 259/2/4 260/2/4 270/2/4
f 269/6/4 259/6/4 270/6/4
f 260/6/4 261/6/4 271/6/4
f 270/2/4 260/2/4 271/2/4
f 261/6/4 262/6/4 271/6/4
f 262/5/4 263/5/4 272/5/4
f 271/6/4 262/6/4 272/6/4
f 263/4/4 264/4/4 273/4/4
f 272/5/4 263/5/4 273/5/4
f 273/4/4 264/4/4 274/4/4
f 264/3/4 265/3/4 275/3/4
f 274/4/4 264/4/4 275/4/4
f 265/6/4 266/6/4 276/6/4
f 275/3/4 265/3/4 276/3/4
f 268/6/4 269/6/4 278/6/4
f 269/2/4 270/2/4 279/2/4
f 278/6/4 269/6/4 279/6/4
f 270/6/4 271/6/4 280/6/4
f 279/2/4 270/2/4 280/2/4
f 280/6/4 271/6/4 281/6/4
f 272/6/4 273/6/4 282/6/4
f 273/5/4 274/5/4 283/5/4
f 282/6/4 273/6/4 283/6/4
f 274/3/4 275/3/4 284/3/4
f 283/5/4 274/5/4 284/5/4
f 275/6/4 276/6/4 285/6/4
f 284/3/4 275/3/4 285/3/4
f 276/6/4 266/6/4 286/6/4
f 285/6/4 276/6/4 286/6/4
f 277/6/4 278/6/4 288/6/4
f 278/2/4 279/2/4 289/2/4
f 288/6/4 278/6/4 289/6/4
f 279/6/4 280/6/4 290/6/4
f 289/2/4 279/2/4 290/2/4
f 290/6/4 280/6/4 291/6/4
f 283/6/4 284/6/4 292/6/4
f 284/6/4 285/6/4 292/6/4
f 292/6/4 285/6/4 293/6/4
f 287/6/4 288/6/4 295/6/4
f 288/2/4 289/2/4 296/2/4
f 295/6/4 288/6/4 296/6/4
f 289/6/4 290/6/4 297/6/4
f 296/2/4 289/2/4 297/2/4
f 297/6/4 290/6/4 298/6/4
f 294/6/4 295/6/4 300/6/4
f 295/2/4 296/2/4 301/2/4
f 300/6/4 295/6/4 301/6/4
f 296/6/4 297/6/4 302/6/4
f 301/2/4 296/2/4 302/2/4
f 302/6/4 297/6/4 303/6/4
f 299/6/4 300/6/4 304/6/4
f 300/2/4 301/2/4 305/2/4
f 304/6/4 300/6/4 305/6/4
f 301/6/4 302/6/4 306/6/4
f 305/2/4 301/2/4 306/2/4
f 306/6/4 302/6/4 307/6/4
f 299/6/4 304/6/4 308/6/4
f 304/2/4 305/2/4 309/2/4
f 308/6/4 304/6/4 309/6/4
f 305/6/4 306/6/4 310/6/4
f 309/2/4 305/2/4 310/2/4
f 309/6/4 310/6/4 311/6/4
f 310/6/4 306/6/4 312/6/4
f 311/6/4 310/6/4 312/6/4
f 315/6/5 314/6/5 313/6/5
f 316/6/5 314/6/5 315/6/5
f 319/6/5 318/6/5 317/6/5
f 320/6/5 318/6/5 319/6/5
f 323/6/5 322/6/5 321/6/5
f 324/6/5 322/6/5 323/6/5
f 327/6/5 326/6/5 325/6/5
f 328/6/5 326/6/5 327/6/5
f 331/6/5 330/6/5 329/6/5
f 332/6/5 330/6/5 331/6/5
f 337/6/5 334/6/5 333/6/5
f 338/6/5 334/6/5 337/6/5
f 339/6/5 336/6/5 335/6/5
f 340/6/5 336/6/5 339/6/5
f 347/6/5 342/6/5 341/6/5
f 348/6/5 342/6/5 347/6/5
f 349/6/5 344/6/5 343/6/5
f 350/6/5 344/6/5 349/6/5
f 351/6/5 346/6/5 345/6/5
f 352/6/5 346/6/5 351/6/5
f 355/6/5 354/6/5 353/6/5
f 356/6/5 354/6/5 355/6/5
f 359/6/5 358/6/5 357/6/5
f 360/6/5 358/6/5 359/6/5
f 363/6/5 362/6/5 361/6/5
f 364/6/5 362/6/5 363/6/5
f 367/6/5 366/6/5 365/6/5
f 368/6/5 366/6/5 367/6/5
f 369/6/6 370/6/6 371/6/6
f 371/6/6 370/6/6 372/6/6
f 373/6/6 374/6/6 375/6/6
f 375/6/6 374/6/6 376/6/6
f 377/6/6 378/6/6 379/6/6
f 379/6/6 378/6/6 380/6/6
f 381/6/6 382/6/6 383/6/6
f 383/6/6 382/6/6 384/6/6
f 385/6/6 386/6/6 387/6/6
f 387/6/6 386/6/6 388/6/6
f 389/6/6 390/6/6 391/6/6
f 391/6/6 390/6/6 392/6/6
f 393/6/6 394/6/6 395/6/6
f 395/6/6 394/6/6 396/6/6
f 397/6/6 398/6/6 399/6/6
f 399/6/6 398/6/6 400/6/6
f 401/6/6 402/6/6 403/6/6
f 403/6/6 402/6/6 404/6/6
f 405/6/6 406/6/6 407/6/6
f 407/6/6 406/6/6 408/6/6
f 409/6/6 410/6/6 413/6/6
f 413/6/6 410/6/6 414/6/6
f 411/6/6 412/6/6 415/6/6
f 415/6/6 412/6/6 416/6/6
f 417/6/6 418/6/6 419/6/6
f 419/6/6 418/6/6 420/6/6
