# MagicaVoxel @ ephtracy

# material
mtllib bow.mtl
usemtl palette

# normals
vn -1 0 0
vn 1 0 0
vn 0 0 1
vn 0 0 -1
vn 0 -1 0
vn 0 1 0

# texcoords
vt 0.509766 0.5
vt 0.876953 0.5
vt 0.994141 0.5

# verts
v -8 14 0.5
v -8 14 -0.5
v -8 15 0.5
v -8 15 -0.5
v -7 13 0.5
v -7 13 -0.5
v -7 14 0.5
v -7 14 -0.5
v -7 15 0.5
v -7 15 -0.5
v -7 16 0.5
v -7 16 -0.5
v -6 12 0.5
v -6 12 -0.5
v -6 13 0.5
v -6 13 -0.5
v -5 11 0.5
v -5 11 -0.5
v -5 12 0.5
v -5 12 -0.5
v -4 10 0.5
v -4 10 -0.5
v -4 11 0.5
v -4 11 -0.5
v -3 9 0.5
v -3 9 -0.5
v -3 10 0.5
v -3 10 -0.5
v -2 8 0.5
v -2 8 -0.5
v -2 9 0.5
v -2 9 -0.5
v -1 7 0.5
v -1 7 -0.5
v -1 8 0.5
v -1 8 -0.5
v -1 12 0.5
v -1 12 -0.5
v -1 13 0.5
v -1 13 -0.5
v 0 6 0.5
v 0 6 -0.5
v 0 7 0.5
v 0 7 -0.5
v 1 5 0.5
v 1 5 -0.5
v 1 6 0.5
v 1 6 -0.5
v 2 4 0.5
v 2 4 -0.5
v 2 5 0.5
v 2 5 -0.5
v 2 11 0.5
v 2 11 -0.5
v 2 12 0.5
v 2 12 -0.5
v 3 3 0.5
v 3 3 -0.5
v 3 4 0.5
v 3 4 -0.5
v 3 10 0.5
v 3 10 -0.5
v 3 11 0.5
v 3 11 -0.5
v 4 2 0.5
v 4 2 -0.5
v 4 3 0.5
v 4 3 -0.5
v 4 7 0.5
v 4 7 -0.5
v 4 10 0.5
v 4 10 -0.5
v 5 1 0.5
v 5 1 -0.5
v 5 2 0.5
v 5 2 -0.5
v 5 3 0.5
v 5 3 -0.5
v 5 7 0.5
v 5 7 -0.5
v 6 0 0.5
v 6 0 -0.5
v 6 1 0.5
v 6 1 -0.5
v -5 12 0.5
v -5 12 -0.5
v -5 13 0.5
v -5 13 -0.5
v -4 11 0.5
v -4 11 -0.5
v -4 12 0.5
v -4 12 -0.5
v -3 10 0.5
v -3 10 -0.5
v -3 11 0.5
v -3 11 -0.5
v -2 9 0.5
v -2 9 -0.5
v -2 10 0.5
v -2 10 -0.5
v -1 8 0.5
v -1 8 -0.5
v -1 9 0.5
v -1 9 -0.5
v -1 15 0.5
v -1 15 -0.5
v -1 16 0.5
v -1 16 -0.5
v 0 7 0.5
v 0 7 -0.5
v 0 8 0.5
v 0 8 -0.5
v 1 6 0.5
v 1 6 -0.5
v 1 7 0.5
v 1 7 -0.5
v 2 5 0.5
v 2 5 -0.5
v 2 6 0.5
v 2 6 -0.5
v 2 14 0.5
v 2 14 -0.5
v 2 15 0.5
v 2 15 -0.5
v 3 4 0.5
v 3 4 -0.5
v 3 5 0.5
v 3 5 -0.5
v 3 13 0.5
v 3 13 -0.5
v 3 14 0.5
v 3 14 -0.5
v 4 3 0.5
v 4 3 -0.5
v 4 4 0.5
v 4 4 -0.5
v 4 12 0.5
v 4 12 -0.5
v 4 13 0.5
v 4 13 -0.5
v 5 11 0.5
v 5 11 -0.5
v 5 12 0.5
v 5 12 -0.5
v 6 10 0.5
v 6 10 -0.5
v 6 11 0.5
v 6 11 -0.5
v 7 0 0.5
v 7 0 -0.5
v 7 1 0.5
v 7 1 -0.5
v 7 7 0.5
v 7 7 -0.5
v 7 10 0.5
v 7 10 -0.5
v 8 1 0.5
v 8 1 -0.5
v 8 7 0.5
v 8 7 -0.5
v -8 14 0.5
v -8 15 0.5
v -7 13 0.5
v -7 14 0.5
v -7 15 0.5
v -7 16 0.5
v -6 12 0.5
v -6 13 0.5
v -5 11 0.5
v -5 12 0.5
v -5 13 0.5
v -4 10 0.5
v -4 11 0.5
v -4 12 0.5
v -3 9 0.5
v -3 10 0.5
v -3 11 0.5
v -2 8 0.5
v -2 9 0.5
v -2 10 0.5
v -1 7 0.5
v -1 8 0.5
v -1 9 0.5
v -1 12 0.5
v -1 13 0.5
v -1 14 0.5
v -1 15 0.5
v -1 16 0.5
v 0 6 0.5
v 0 7 0.5
v 0 8 0.5
v 1 5 0.5
v 1 6 0.5
v 1 7 0.5
v 2 4 0.5
v 2 5 0.5
v 2 6 0.5
v 2 11 0.5
v 2 12 0.5
v 2 13 0.5
v 2 14 0.5
v 2 15 0.5
v 3 3 0.5
v 3 4 0.5
v 3 5 0.5
v 3 10 0.5
v 3 11 0.5
v 3 12 0.5
v 3 13 0.5
v 3 14 0.5
v 4 2 0.5
v 4 3 0.5
v 4 4 0.5
v 4 7 0.5
v 4 10 0.5
v 4 11 0.5
v 4 12 0.5
v 4 13 0.5
v 5 1 0.5
v 5 2 0.5
v 5 3 0.5
v 5 7 0.5
v 5 10 0.5
v 5 11 0.5
v 5 12 0.5
v 6 0 0.5
v 6 1 0.5
v 6 7 0.5
v 6 10 0.5
v 6 11 0.5
v 7 0 0.5
v 7 1 0.5
v 7 7 0.5
v 7 10 0.5
v 8 1 0.5
v 8 7 0.5
v -8 14 -0.5
v -8 15 -0.5
v -7 13 -0.5
v -7 14 -0.5
v -7 15 -0.5
v -7 16 -0.5
v -6 12 -0.5
v -6 13 -0.5
v -5 11 -0.5
v -5 12 -0.5
v -5 13 -0.5
v -4 10 -0.5
v -4 11 -0.5
v -4 12 -0.5
v -3 9 -0.5
v -3 10 -0.5
v -3 11 -0.5
v -2 8 -0.5
v -2 9 -0.5
v -2 10 -0.5
v -1 7 -0.5
v -1 8 -0.5
v -1 9 -0.5
v -1 12 -0.5
v -1 13 -0.5
v -1 14 -0.5
v -1 15 -0.5
v -1 16 -0.5
v 0 6 -0.5
v 0 7 -0.5
v 0 8 -0.5
v 1 5 -0.5
v 1 6 -0.5
v 1 7 -0.5
v 2 4 -0.5
v 2 5 -0.5
v 2 6 -0.5
v 2 11 -0.5
v 2 12 -0.5
v 2 13 -0.5
v 2 14 -0.5
v 2 15 -0.5
v 3 3 -0.5
v 3 4 -0.5
v 3 5 -0.5
v 3 10 -0.5
v 3 11 -0.5
v 3 12 -0.5
v 3 13 -0.5
v 3 14 -0.5
v 4 2 -0.5
v 4 3 -0.5
v 4 4 -0.5
v 4 7 -0.5
v 4 10 -0.5
v 4 11 -0.5
v 4 12 -0.5
v 4 13 -0.5
v 5 1 -0.5
v 5 2 -0.5
v 5 3 -0.5
v 5 7 -0.5
v 5 10 -0.5
v 5 11 -0.5
v 5 12 -0.5
v 6 0 -0.5
v 6 1 -0.5
v 6 7 -0.5
v 6 10 -0.5
v 6 11 -0.5
v 7 0 -0.5
v 7 1 -0.5
v 7 7 -0.5
v 7 10 -0.5
v 8 1 -0.5
v 8 7 -0.5
v 6 0 0.5
v 7 0 0.5
v 6 0 -0.5
v 7 0 -0.5
v 5 1 0.5
v 6 1 0.5
v 7 1 0.5
v 8 1 0.5
v 5 1 -0.5
v 6 1 -0.5
v 7 1 -0.5
v 8 1 -0.5
v 4 2 0.5
v 5 2 0.5
v 4 2 -0.5
v 5 2 -0.5
v 3 3 0.5
v 4 3 0.5
v 3 3 -0.5
v 4 3 -0.5
v 2 4 0.5
v 3 4 0.5
v 2 4 -0.5
v 3 4 -0.5
v 1 5 0.5
v 2 5 0.5
v 1 5 -0.5
v 2 5 -0.5
v 0 6 0.5
v 1 6 0.5
v 0 6 -0.5
v 1 6 -0.5
v -1 7 0.5
v 0 7 0.5
v 4 7 0.5
v 5 7 0.5
v -1 7 -0.5
v 0 7 -0.5
v 4 7 -0.5
v 5 7 -0.5
v -2 8 0.5
v -1 8 0.5
v -2 8 -0.5
v -1 8 -0.5
v -3 9 0.5
v -2 9 0.5
v -3 9 -0.5
v -2 9 -0.5
v -4 10 0.5
v -3 10 0.5
v 3 10 0.5
v 4 10 0.5
v -4 10 -0.5
v -3 10 -0.5
v 3 10 -0.5
v 4 10 -0.5
v -5 11 0.5
v -4 11 0.5
v 2 11 0.5
v 3 11 0.5
v -5 11 -0.5
v -4 11 -0.5
v 2 11 -0.5
v 3 11 -0.5
v -6 12 0.5
v -5 12 0.5
v -1 12 0.5
v 2 12 0.5
v -6 12 -0.5
v -5 12 -0.5
v -1 12 -0.5
v 2 12 -0.5
v -7 13 0.5
v -6 13 0.5
v -5 13 0.5
v -1 13 0.5
v -7 13 -0.5
v -6 13 -0.5
v -5 13 -0.5
v -1 13 -0.5
v -8 14 0.5
v -7 14 0.5
v -8 14 -0.5
v -7 14 -0.5
v 4 3 0.5
v 5 3 0.5
v 4 3 -0.5
v 5 3 -0.5
v 3 4 0.5
v 4 4 0.5
v 3 4 -0.5
v 4 4 -0.5
v 2 5 0.5
v 3 5 0.5
v 2 5 -0.5
v 3 5 -0.5
v 1 6 0.5
v 2 6 0.5
v 1 6 -0.5
v 2 6 -0.5
v 0 7 0.5
v 1 7 0.5
v 7 7 0.5
v 8 7 0.5
v 0 7 -0.5
v 1 7 -0.5
v 7 7 -0.5
v 8 7 -0.5
v -1 8 0.5
v 0 8 0.5
v -1 8 -0.5
v 0 8 -0.5
v -2 9 0.5
v -1 9 0.5
v -2 9 -0.5
v -1 9 -0.5
v -3 10 0.5
v -2 10 0.5
v 6 10 0.5
v 7 10 0.5
v -3 10 -0.5
v -2 10 -0.5
v 6 10 -0.5
v 7 10 -0.5
v -4 11 0.5
v -3 11 0.5
v 5 11 0.5
v 6 11 0.5
v -4 11 -0.5
v -3 11 -0.5
v 5 11 -0.5
v 6 11 -0.5
v -5 12 0.5
v -4 12 0.5
v 4 12 0.5
v 5 12 0.5
v -5 12 -0.5
v -4 12 -0.5
v 4 12 -0.5
v 5 12 -0.5
v 3 13 0.5
v 4 13 0.5
v 3 13 -0.5
v 4 13 -0.5
v 2 14 0.5
v 3 14 0.5
v 2 14 -0.5
v 3 14 -0.5
v -8 15 0.5
v -7 15 0.5
v -1 15 0.5
v 2 15 0.5
v -8 15 -0.5
v -7 15 -0.5
v -1 15 -0.5
v 2 15 -0.5
v -7 16 0.5
v -1 16 0.5
v -7 16 -0.5
v -1 16 -0.5

# faces
f 3/2/1 2/2/1 1/2/1
f 4/2/1 2/2/1 3/2/1
f 7/2/1 6/2/1 5/2/1
f 8/2/1 6/2/1 7/2/1
f 11/3/1 10/3/1 9/3/1
f 12/3/1 10/3/1 11/3/1
f 15/2/1 14/2/1 13/2/1
f 16/2/1 14/2/1 15/2/1
f 19/2/1 18/2/1 17/2/1
f 20/2/1 18/2/1 19/2/1
f 23/2/1 22/2/1 21/2/1
f 24/2/1 22/2/1 23/2/1
f 27/2/1 26/2/1 25/2/1
f 28/2/1 26/2/1 27/2/1
f 31/2/1 30/2/1 29/2/1
f 32/2/1 30/2/1 31/2/1
f 35/2/1 34/2/1 33/2/1
f 36/2/1 34/2/1 35/2/1
f 39/2/1 38/2/1 37/2/1
f 40/2/1 38/2/1 39/2/1
f 43/2/1 42/2/1 41/2/1
f 44/2/1 42/2/1 43/2/1
f 47/2/1 46/2/1 45/2/1
f 48/2/1 46/2/1 47/2/1
f 51/2/1 50/2/1 49/2/1
f 52/2/1 50/2/1 51/2/1
f 55/3/1 54/3/1 53/3/1
f 56/3/1 54/3/1 55/3/1
f 59/2/1 58/2/1 57/2/1
f 60/2/1 58/2/1 59/2/1
f 63/2/1 62/2/1 61/2/1
f 64/2/1 62/2/1 63/2/1
f 67/2/1 66/2/1 65/2/1
f 68/2/1 66/2/1 67/2/1
f 71/2/1 70/2/1 69/2/1
f 72/2/1 70/2/1 71/2/1
f 75/2/1 74/2/1 73/2/1
f 76/2/1 74/2/1 75/2/1
f 79/2/1 78/2/1 77/2/1
f 80/2/1 78/2/1 79/2/1
f 83/2/1 82/2/1 81/2/1
f 84/2/1 82/2/1 83/2/1
f 85/2/2 86/2/2 87/2/2
f 87/2/2 86/2/2 88/2/2
f 89/2/2 90/2/2 91/2/2
f 91/2/2 90/2/2 92/2/2
f 93/2/2 94/2/2 95/2/2
f 95/2/2 94/2/2 96/2/2
f 97/2/2 98/2/2 99/2/2
f 99/2/2 98/2/2 100/2/2
f 101/2/2 102/2/2 103/2/2
f 103/2/2 102/2/2 104/2/2
f 105/3/2 106/3/2 107/3/2
f 107/3/2 106/3/2 108/3/2
f 109/2/2 110/2/2 111/2/2
f 111/2/2 110/2/2 112/2/2
f 113/2/2 114/2/2 115/2/2
f 115/2/2 114/2/2 116/2/2
f 117/2/2 118/2/2 119/2/2
f 119/2/2 118/2/2 120/2/2
f 121/3/2 122/3/2 123/3/2
f 123/3/2 122/3/2 124/3/2
f 125/2/2 126/2/2 127/2/2
f 127/2/2 126/2/2 128/2/2
f 129/3/2 130/3/2 131/3/2
f 131/3/2 130/3/2 132/3/2
f 133/2/2 134/2/2 135/2/2
f 135/2/2 134/2/2 136/2/2
f 137/3/2 138/3/2 139/3/2
f 139/3/2 138/3/2 140/3/2
f 141/3/2 142/3/2 143/3/2
f 143/3/2 142/3/2 144/3/2
f 145/3/2 146/3/2 147/3/2
f 147/3/2 146/3/2 148/3/2
f 149/2/2 150/2/2 151/2/2
f 151/2/2 150/2/2 152/2/2
f 153/3/2 154/3/2 155/3/2
f 155/3/2 154/3/2 156/3/2
f 157/3/2 158/3/2 159/3/2
f 159/3/2 158/3/2 160/3/2
f 164/2/3 162/2/3 161/2/3
f 165/2/3 162/2/3 164/2/3
f 168/2/3 164/2/3 163/2/3
f 170/2/3 168/2/3 167/2/3
f 171/2/3 164/2/3 168/2/3
f 171/2/3 168/2/3 170/2/3
f 173/2/3 170/2/3 169/2/3
f 174/2/3 170/2/3 173/2/3
f 176/2/3 173/2/3 172/2/3
f 177/2/3 173/2/3 176/2/3
f 179/2/3 176/2/3 175/2/3
f 180/2/3 176/2/3 179/2/3
f 182/2/3 179/2/3 178/2/3
f 183/2/3 179/2/3 182/2/3
f 185/2/3 164/2/3 171/2/3
f 186/1/3 165/1/3 164/1/3
f 186/2/3 164/2/3 185/2/3
f 187/3/3 166/3/3 165/3/3
f 187/1/3 165/1/3 186/1/3
f 188/3/3 166/3/3 187/3/3
f 190/2/3 182/2/3 181/2/3
f 191/2/3 182/2/3 190/2/3
f 193/2/3 190/2/3 189/2/3
f 194/2/3 190/2/3 193/2/3
f 196/2/3 193/2/3 192/2/3
f 197/2/3 193/2/3 196/2/3
f 199/2/3 185/2/3 184/2/3
f 200/1/3 186/1/3 185/1/3
f 200/2/3 185/2/3 199/2/3
f 201/3/3 187/3/3 186/3/3
f 201/1/3 186/1/3 200/1/3
f 202/3/3 187/3/3 201/3/3
f 204/2/3 196/2/3 195/2/3
f 205/2/3 196/2/3 204/2/3
f 207/3/3 199/3/3 198/3/3
f 208/1/3 200/1/3 199/1/3
f 208/3/3 199/3/3 207/3/3
f 209/3/3 201/3/3 200/3/3
f 209/1/3 200/1/3 208/1/3
f 210/3/3 201/3/3 209/3/3
f 212/2/3 204/2/3 203/2/3
f 213/2/3 204/2/3 212/2/3
f 215/2/3 207/2/3 206/2/3
f 216/1/3 208/1/3 207/1/3
f 216/2/3 207/2/3 215/2/3
f 217/3/3 209/3/3 208/3/3
f 217/1/3 208/1/3 216/1/3
f 218/3/3 209/3/3 217/3/3
f 220/2/3 212/2/3 211/2/3
f 221/2/3 212/2/3 220/2/3
f 222/2/3 215/2/3 214/2/3
f 223/1/3 216/1/3 215/1/3
f 223/2/3 215/2/3 222/2/3
f 224/3/3 217/3/3 216/3/3
f 224/1/3 216/1/3 223/1/3
f 225/3/3 217/3/3 224/3/3
f 227/2/3 221/2/3 220/2/3
f 227/2/3 222/2/3 221/2/3
f 227/2/3 220/2/3 219/2/3
f 228/1/3 223/1/3 222/1/3
f 228/2/3 222/2/3 227/2/3
f 229/3/3 224/3/3 223/3/3
f 229/1/3 223/1/3 228/1/3
f 230/3/3 224/3/3 229/3/3
f 231/2/3 227/2/3 226/2/3
f 232/1/3 228/1/3 227/1/3
f 232/2/3 227/2/3 231/2/3
f 233/3/3 229/3/3 228/3/3
f 233/1/3 228/1/3 232/1/3
f 234/3/3 229/3/3 233/3/3
f 235/3/3 233/3/3 232/3/3
f 236/3/3 233/3/3 235/3/3
f 237/2/4 238/2/4 240/2/4
f 240/2/4 238/2/4 241/2/4
f 239/2/4 240/2/4 244/2/4
f 243/2/4 244/2/4 246/2/4
f 244/2/4 240/2/4 247/2/4
f 246/2/4 244/2/4 247/2/4
f 245/2/4 246/2/4 249/2/4
f 249/2/4 246/2/4 250/2/4
f 248/2/4 249/2/4 252/2/4
f 252/2/4 249/2/4 253/2/4
f 251/2/4 252/2/4 255/2/4
f 255/2/4 252/2/4 256/2/4
f 254/2/4 255/2/4 258/2/4
f 258/2/4 255/2/4 259/2/4
f 247/2/4 240/2/4 261/2/4
f 240/1/4 241/1/4 262/1/4
f 261/2/4 240/2/4 262/2/4
f 241/3/4 242/3/4 263/3/4
f 262/1/4 241/1/4 263/1/4
f 263/3/4 242/3/4 264/3/4
f 257/2/4 258/2/4 266/2/4
f 266/2/4 258/2/4 267/2/4
f 265/2/4 266/2/4 269/2/4
f 269/2/4 266/2/4 270/2/4
f 268/2/4 269/2/4 272/2/4
f 272/2/4 269/2/4 273/2/4
f 260/2/4 261/2/4 275/2/4
f 261/1/4 262/1/4 276/1/4
f 275/2/4 261/2/4 276/2/4
f 262/3/4 263/3/4 277/3/4
f 276/1/4 262/1/4 277/1/4
f 277/3/4 263/3/4 278/3/4
f 271/2/4 272/2/4 280/2/4
f 280/2/4 272/2/4 281/2/4
f 274/3/4 275/3/4 283/3/4
f 275/1/4 276/1/4 284/1/4
f 283/3/4 275/3/4 284/3/4
f 276/3/4 277/3/4 285/3/4
f 284/1/4 276/1/4 285/1/4
f 285/3/4 277/3/4 286/3/4
f 279/2/4 280/2/4 288/2/4
f 288/2/4 280/2/4 289/2/4
f 282/2/4 283/2/4 291/2/4
f 283/1/4 284/1/4 292/1/4
f 291/2/4 283/2/4 292/2/4
f 284/3/4 285/3/4 293/3/4
f 292/1/4 284/1/4 293/1/4
f 293/3/4 285/3/4 294/3/4
f 287/2/4 288/2/4 296/2/4
f 296/2/4 288/2/4 297/2/4
f 290/2/4 291/2/4 298/2/4
f 291/1/4 292/1/4 299/1/4
f 298/2/4 291/2/4 299/2/4
f 292/3/4 293/3/4 300/3/4
f 299/1/4 292/1/4 300/1/4
f 300/3/4 293/3/4 301/3/4
f 296/2/4 297/2/4 303/2/4
f 297/2/4 298/2/4 303/2/4
f 295/2/4 296/2/4 303/2/4
f 298/1/4 299/1/4 304/1/4
f 303/2/4 298/2/4 304/2/4
f 299/3/4 300/3/4 305/3/4
f 304/1/4 299/1/4 305/1/4
f 305/3/4 300/3/4 306/3/4
f 302/2/4 303/2/4 307/2/4
f 303/1/4 304/1/4 308/1/4
f 307/2/4 303/2/4 308/2/4
f 304/3/4 305/3/4 309/3/4
f 308/1/4 304/1/4 309/1/4
f 309/3/4 305/3/4 310/3/4
f 308/3/4 309/3/4 311/3/4
f 311/3/4 309/3/4 312/3/4
f 315/2/5 314/2/5 313/2/5
f 316/2/5 314/2/5 315/2/5
f 321/2/5 318/2/5 317/2/5
f 322/2/5 318/2/5 321/2/5
f 323/3/5 320/3/5 319/3/5
f 324/3/5 320/3/5 323/3/5
f 327/2/5 326/2/5 325/2/5
f 328/2/5 326/2/5 327/2/5
f 331/2/5 330/2/5 329/2/5
f 332/2/5 330/2/5 331/2/5
f 335/2/5 334/2/5 333/2/5
f 336/2/5 334/2/5 335/2/5
f 339/2/5 338/2/5 337/2/5
f 340/2/5 338/2/5 339/2/5
f 343/2/5 342/2/5 341/2/5
f 344/2/5 342/2/5 343/2/5
f 349/2/5 346/2/5 345/2/5
f 350/2/5 346/2/5 349/2/5
f 351/2/5 348/2/5 347/2/5
f 352/2/5 348/2/5 351/2/5
f 355/2/5 354/2/5 353/2/5
f 356/2/5 354/2/5 355/2/5
f 359/2/5 358/2/5 357/2/5
f 360/2/5 358/2/5 359/2/5
f 365/2/5 362/2/5 361/2/5
f 366/2/5 362/2/5 365/2/5
f 367/2/5 364/2/5 363/2/5
f 368/2/5 364/2/5 367/2/5
f 373/2/5 370/2/5 369/2/5
f 374/2/5 370/2/5 373/2/5
f 375/3/5 372/3/5 371/3/5
f 376/3/5 372/3/5 375/3/5
f 381/2/5 378/2/5 377/2/5
f 382/2/5 378/2/5 381/2/5
f 383/2/5 380/2/5 379/2/5
f 384/2/5 380/2/5 383/2/5
f 389/2/5 386/2/5 385/2/5
f 390/2/5 386/2/5 389/2/5
f 391/2/5 388/2/5 387/2/5
f 392/2/5 388/2/5 391/2/5
f 395/2/5 394/2/5 393/2/5
f 396/2/5 394/2/5 395/2/5
f 397/2/6 398/2/6 399/2/6
f 399/2/6 398/2/6 400/2/6
f 401/2/6 402/2/6 403/2/6
f 403/2/6 402/2/6 404/2/6
f 405/2/6 406/2/6 407/2/6
f 407/2/6 406/2/6 408/2/6
f 409/2/6 410/2/6 411/2/6
f 411/2/6 410/2/6 412/2/6
f 413/2/6 414/2/6 417/2/6
f 417/2/6 414/2/6 418/2/6
f 415/3/6 416/3/6 419/3/6
f 419/3/6 416/3/6 420/3/6
f 421/2/6 422/2/6 423/2/6
f 423/2/6 422/2/6 424/2/6
f 425/2/6 426/2/6 427/2/6
f 427/2/6 426/2/6 428/2/6
f 429/2/6 430/2/6 433/2/6
f 433/2/6 430/2/6 434/2/6
f 431/3/6 432/3/6 435/3/6
f 435/3/6 432/3/6 436/3/6
f 437/2/6 438/2/6 441/2/6
f 441/2/6 438/2/6 442/2/6
f 439/3/6 440/3/6 443/3/6
f 443/3/6 440/3/6 444/3/6
f 445/2/6 446/2/6 449/2/6
f 449/2/6 446/2/6 450/2/6
f 447/3/6 448/3/6 451/3/6
f 451/3/6 448/3/6 452/3/6
f 453/3/6 454/3/6 455/3/6
f 455/3/6 454/3/6 456/3/6
f 457/3/6 458/3/6 459/3/6
f 459/3/6 458/3/6 460/3/6
f 461/2/6 462/2/6 465/2/6
f 465/2/6 462/2/6 466/2/6
f 463/3/6 464/3/6 467/3/6
f 467/3/6 464/3/6 468/3/6
f 469/3/6 470/3/6 471/3/6
f 471/3/6 470/3/6 472/3/6
