# MagicaVoxel @ ephtracy

# material
mtllib earth_staff.mtl
usemtl palette

# normals
vn -1 0 0
vn 1 0 0
vn 0 0 1
vn 0 0 -1
vn 0 -1 0
vn 0 1 0

# texcoords
vt 0.201172 0.5
vt 0.369141 0.5
vt 0.533203 0.5
vt 0.736328 0.5
vt 0.740234 0.5
vt 0.767578 0.5
vt 0.876953 0.5

# verts
v -8 12 0.5
v -8 12 -0.5
v -8 15 0.5
v -8 15 -0.5
v -7 10 0.5
v -7 10 -0.5
v -7 12 0.5
v -7 12 -0.5
v -7 15 0.5
v -7 15 -0.5
v -7 16 0.5
v -7 16 -0.5
v -6 9 0.5
v -6 9 -0.5
v -6 10 0.5
v -6 10 -0.5
v -4 7 0.5
v -4 7 -0.5
v -4 9 0.5
v -4 9 -0.5
v -3 3 0.5
v -3 3 -0.5
v -3 6 0.5
v -3 6 -0.5
v -2 2 0.5
v -2 2 -0.5
v -2 3 0.5
v -2 3 -0.5
v -2 6 0.5
v -2 6 -0.5
v -2 7 0.5
v -2 7 -0.5
v 1 5 0.5
v 1 5 -0.5
v 1 6 0.5
v 1 6 -0.5
v 2 4 0.5
v 2 4 -0.5
v 2 5 0.5
v 2 5 -0.5
v 2 10 0.5
v 2 10 -0.5
v 2 11 0.5
v 2 11 -0.5
v 3 3 0.5
v 3 3 -0.5
v 3 4 0.5
v 3 4 -0.5
v 4 2 0.5
v 4 2 -0.5
v 4 3 0.5
v 4 3 -0.5
v 5 1 0.5
v 5 1 -0.5
v 5 2 0.5
v 5 2 -0.5
v 5 9 0.5
v 5 9 -0.5
v 5 10 0.5
v 5 10 -0.5
v 6 0 0.5
v 6 0 -0.5
v 6 1 0.5
v 6 1 -0.5
v -4 15 0.5
v -4 15 -0.5
v -4 16 0.5
v -4 16 -0.5
v -2 3 0.5
v -2 3 -0.5
v -2 5 0.5
v -2 5 -0.5
v -2 14 0.5
v -2 14 -0.5
v -2 15 0.5
v -2 15 -0.5
v -1 2 0.5
v -1 2 -0.5
v -1 3 0.5
v -1 3 -0.5
v -1 5 0.5
v -1 5 -0.5
v -1 6 0.5
v -1 6 -0.5
v -1 12 0.5
v -1 12 -0.5
v -1 14 0.5
v -1 14 -0.5
v 1 10 0.5
v 1 10 -0.5
v 1 12 0.5
v 1 12 -0.5
v 2 7 0.5
v 2 7 -0.5
v 2 9 0.5
v 2 9 -0.5
v 3 6 0.5
v 3 6 -0.5
v 3 7 0.5
v 3 7 -0.5
v 3 9 0.5
v 3 9 -0.5
v 3 10 0.5
v 3 10 -0.5
v 4 5 0.5
v 4 5 -0.5
v 4 6 0.5
v 4 6 -0.5
v 5 4 0.5
v 5 4 -0.5
v 5 5 0.5
v 5 5 -0.5
v 5 10 0.5
v 5 10 -0.5
v 5 11 0.5
v 5 11 -0.5
v 6 3 0.5
v 6 3 -0.5
v 6 4 0.5
v 6 4 -0.5
v 6 9 0.5
v 6 9 -0.5
v 6 10 0.5
v 6 10 -0.5
v 7 2 0.5
v 7 2 -0.5
v 7 3 0.5
v 7 3 -0.5
v 8 0 0.5
v 8 0 -0.5
v 8 2 0.5
v 8 2 -0.5
v -8 12 0.5
v -8 15 0.5
v -7 10 0.5
v -7 12 0.5
v -7 14 0.5
v -7 15 0.5
v -7 16 0.5
v -6 9 0.5
v -6 10 0.5
v -6 11 0.5
v -6 13 0.5
v -6 14 0.5
v -5 13 0.5
v -5 14 0.5
v -4 7 0.5
v -4 9 0.5
v -4 10 0.5
v -4 11 0.5
v -4 12 0.5
v -4 13 0.5
v -4 15 0.5
v -4 16 0.5
v -3 3 0.5
v -3 6 0.5
v -3 8 0.5
v -3 9 0.5
v -3 10 0.5
v -3 11 0.5
v -3 12 0.5
v -3 14 0.5
v -2 2 0.5
v -2 3 0.5
v -2 5 0.5
v -2 6 0.5
v -2 7 0.5
v -2 8 0.5
v -2 9 0.5
v -2 10 0.5
v -2 11 0.5
v -2 12 0.5
v -2 14 0.5
v -2 15 0.5
v -1 2 0.5
v -1 3 0.5
v -1 5 0.5
v -1 6 0.5
v -1 9 0.5
v -1 10 0.5
v -1 11 0.5
v -1 12 0.5
v -1 14 0.5
v 0 7 0.5
v 0 8 0.5
v 0 10 0.5
v 0 11 0.5
v 1 5 0.5
v 1 6 0.5
v 1 7 0.5
v 1 8 0.5
v 1 10 0.5
v 1 12 0.5
v 2 4 0.5
v 2 5 0.5
v 2 6 0.5
v 2 7 0.5
v 2 9 0.5
v 2 10 0.5
v 2 11 0.5
v 3 3 0.5
v 3 4 0.5
v 3 5 0.5
v 3 6 0.5
v 3 7 0.5
v 3 9 0.5
v 3 10 0.5
v 4 2 0.5
v 4 3 0.5
v 4 4 0.5
v 4 5 0.5
v 4 6 0.5
v 5 1 0.5
v 5 2 0.5
v 5 3 0.5
v 5 4 0.5
v 5 5 0.5
v 5 9 0.5
v 5 10 0.5
v 5 11 0.5
v 6 0 0.5
v 6 1 0.5
v 6 2 0.5
v 6 3 0.5
v 6 4 0.5
v 6 9 0.5
v 6 10 0.5
v 7 1 0.5
v 7 2 0.5
v 7 3 0.5
v 8 0 0.5
v 8 2 0.5
v -8 12 -0.5
v -8 15 -0.5
v -7 10 -0.5
v -7 12 -0.5
v -7 14 -0.5
v -7 15 -0.5
v -7 16 -0.5
v -6 9 -0.5
v -6 10 -0.5
v -6 11 -0.5
v -6 13 -0.5
v -6 14 -0.5
v -5 13 -0.5
v -5 14 -0.5
v -4 7 -0.5
v -4 9 -0.5
v -4 10 -0.5
v -4 11 -0.5
v -4 12 -0.5
v -4 13 -0.5
v -4 15 -0.5
v -4 16 -0.5
v -3 3 -0.5
v -3 6 -0.5
v -3 8 -0.5
v -3 9 -0.5
v -3 10 -0.5
v -3 11 -0.5
v -3 12 -0.5
v -3 14 -0.5
v -2 2 -0.5
v -2 3 -0.5
v -2 5 -0.5
v -2 6 -0.5
v -2 7 -0.5
v -2 8 -0.5
v -2 9 -0.5
v -2 10 -0.5
v -2 11 -0.5
v -2 12 -0.5
v -2 14 -0.5
v -2 15 -0.5
v -1 2 -0.5
v -1 3 -0.5
v -1 5 -0.5
v -1 6 -0.5
v -1 9 -0.5
v -1 10 -0.5
v -1 11 -0.5
v -1 12 -0.5
v -1 14 -0.5
v 0 7 -0.5
v 0 8 -0.5
v 0 10 -0.5
v 0 11 -0.5
v 1 5 -0.5
v 1 6 -0.5
v 1 7 -0.5
v 1 8 -0.5
v 1 10 -0.5
v 1 12 -0.5
v 2 4 -0.5
v 2 5 -0.5
v 2 6 -0.5
v 2 7 -0.5
v 2 9 -0.5
v 2 10 -0.5
v 2 11 -0.5
v 3 3 -0.5
v 3 4 -0.5
v 3 5 -0.5
v 3 6 -0.5
v 3 7 -0.5
v 3 9 -0.5
v 3 10 -0.5
v 4 2 -0.5
v 4 3 -0.5
v 4 4 -0.5
v 4 5 -0.5
v 4 6 -0.5
v 5 1 -0.5
v 5 2 -0.5
v 5 3 -0.5
v 5 4 -0.5
v 5 5 -0.5
v 5 9 -0.5
v 5 10 -0.5
v 5 11 -0.5
v 6 0 -0.5
v 6 1 -0.5
v 6 2 -0.5
v 6 3 -0.5
v 6 4 -0.5
v 6 9 -0.5
v 6 10 -0.5
v 7 1 -0.5
v 7 2 -0.5
v 7 3 -0.5
v 8 0 -0.5
v 8 2 -0.5
v 6 0 0.5
v 8 0 0.5
v 6 0 -0.5
v 8 0 -0.5
v 5 1 0.5
v 6 1 0.5
v 5 1 -0.5
v 6 1 -0.5
v -2 2 0.5
v -1 2 0.5
v 4 2 0.5
v 5 2 0.5
v -2 2 -0.5
v -1 2 -0.5
v 4 2 -0.5
v 5 2 -0.5
v -3 3 0.5
v -2 3 0.5
v 3 3 0.5
v 4 3 0.5
v -3 3 -0.5
v -2 3 -0.5
v 3 3 -0.5
v 4 3 -0.5
v 2 4 0.5
v 3 4 0.5
v 2 4 -0.5
v 3 4 -0.5
v -2 5 0.5
v -1 5 0.5
v 1 5 0.5
v 2 5 0.5
v -2 5 -0.5
v -1 5 -0.5
v 1 5 -0.5
v 2 5 -0.5
v -1 6 0.5
v 1 6 0.5
v -1 6 -0.5
v 1 6 -0.5
v -4 7 0.5
v -2 7 0.5
v -4 7 -0.5
v -2 7 -0.5
v -6 9 0.5
v -4 9 0.5
v 2 9 0.5
v 3 9 0.5
v 5 9 0.5
v 6 9 0.5
v -6 9 -0.5
v -4 9 -0.5
v 2 9 -0.5
v 3 9 -0.5
v 5 9 -0.5
v 6 9 -0.5
v -7 10 0.5
v -6 10 0.5
v 3 10 0.5
v 5 10 0.5
v -7 10 -0.5
v -6 10 -0.5
v 3 10 -0.5
v 5 10 -0.5
v -8 12 0.5
v -7 12 0.5
v -8 12 -0.5
v -7 12 -0.5
v 7 2 0.5
v 8 2 0.5
v 7 2 -0.5
v 8 2 -0.5
v -2 3 0.5
v -1 3 0.5
v 6 3 0.5
v 7 3 0.5
v -2 3 -0.5
v -1 3 -0.5
v 6 3 -0.5
v 7 3 -0.5
v 5 4 0.5
v 6 4 0.5
v 5 4 -0.5
v 6 4 -0.5
v 4 5 0.5
v 5 5 0.5
v 4 5 -0.5
v 5 5 -0.5
v -3 6 0.5
v -2 6 0.5
v 3 6 0.5
v 4 6 0.5
v -3 6 -0.5
v -2 6 -0.5
v 3 6 -0.5
v 4 6 -0.5
v 2 7 0.5
v 3 7 0.5
v 2 7 -0.5
v 3 7 -0.5
v 1 10 0.5
v 2 10 0.5
v 5 10 0.5
v 6 10 0.5
v 1 10 -0.5
v 2 10 -0.5
v 5 10 -0.5
v 6 10 -0.5
v 2 11 0.5
v 5 11 0.5
v 2 11 -0.5
v 5 11 -0.5
v -1 12 0.5
v 1 12 0.5
v -1 12 -0.5
v 1 12 -0.5
v -2 14 0.5
v -1 14 0.5
v -2 14 -0.5
v -1 14 -0.5
v -8 15 0.5
v -7 15 0.5
v -4 15 0.5
v -2 15 0.5
v -8 15 -0.5
v -7 15 -0.5
v -4 15 -0.5
v -2 15 -0.5
v -7 16 0.5
v -4 16 0.5
v -7 16 -0.5
v -4 16 -0.5

# faces
f 3/7/1 2/7/1 1/7/1
f 4/7/1 2/7/1 3/7/1
f 7/7/1 6/7/1 5/7/1
f 8/7/1 6/7/1 7/7/1
f 11/7/1 10/7/1 9/7/1
f 12/7/1 10/7/1 11/7/1
f 15/7/1 14/7/1 13/7/1
f 16/7/1 14/7/1 15/7/1
f 19/7/1 18/7/1 17/7/1
f 20/7/1 18/7/1 19/7/1
f 23/7/1 22/7/1 21/7/1
f 24/7/1 22/7/1 23/7/1
f 27/7/1 26/7/1 25/7/1
f 28/7/1 26/7/1 27/7/1
f 31/7/1 30/7/1 29/7/1
f 32/7/1 30/7/1 31/7/1
f 35/7/1 34/7/1 33/7/1
f 36/7/1 34/7/1 35/7/1
f 39/7/1 38/7/1 37/7/1
f 40/7/1 38/7/1 39/7/1
f 43/7/1 42/7/1 41/7/1
f 44/7/1 42/7/1 43/7/1
f 47/7/1 46/7/1 45/7/1
f 48/7/1 46/7/1 47/7/1
f 51/7/1 50/7/1 49/7/1
f 52/7/1 50/7/1 51/7/1
f 55/7/1 54/7/1 53/7/1
f 56/7/1 54/7/1 55/7/1
f 59/7/1 58/7/1 57/7/1
f 60/7/1 58/7/1 59/7/1
f 63/7/1 62/7/1 61/7/1
f 64/7/1 62/7/1 63/7/1
f 65/7/2 66/7/2 67/7/2
f 67/7/2 66/7/2 68/7/2
f 69/7/2 70/7/2 71/7/2
f 71/7/2 70/7/2 72/7/2
f 73/7/2 74/7/2 75/7/2
f 75/7/2 74/7/2 76/7/2
f 77/7/2 78/7/2 79/7/2
f 79/7/2 78/7/2 80/7/2
f 81/7/2 82/7/2 83/7/2
f 83/7/2 82/7/2 84/7/2
f 85/7/2 86/7/2 87/7/2
f 87/7/2 86/7/2 88/7/2
f 89/7/2 90/7/2 91/7/2
f 91/7/2 90/7/2 92/7/2
f 93/7/2 94/7/2 95/7/2
f 95/7/2 94/7/2 96/7/2
f 97/7/2 98/7/2 99/7/2
f 99/7/2 98/7/2 100/7/2
f 101/7/2 102/7/2 103/7/2
f 103/7/2 102/7/2 104/7/2
f 105/7/2 106/7/2 107/7/2
f 107/7/2 106/7/2 108/7/2
f 109/7/2 110/7/2 111/7/2
f 111/7/2 110/7/2 112/7/2
f 113/7/2 114/7/2 115/7/2
f 115/7/2 114/7/2 116/7/2
f 117/7/2 118/7/2 119/7/2
f 119/7/2 118/7/2 120/7/2
f 121/7/2 122/7/2 123/7/2
f 123/7/2 122/7/2 124/7/2
f 125/7/2 126/7/2 127/7/2
f 127/7/2 126/7/2 128/7/2
f 129/7/2 130/7/2 131/7/2
f 131/7/2 130/7/2 132/7/2
f 136/7/3 134/7/3 133/7/3
f 137/7/3 134/7/3 136/7/3
f 138/7/3 134/7/3 137/7/3
f 141/7/3 136/7/3 135/7/3
f 142/7/3 136/7/3 141/7/3
f 143/6/3 137/6/3 136/6/3
f 144/4/3 138/4/3 137/4/3
f 144/6/3 137/6/3 143/6/3
f 145/6/3 143/6/3 136/6/3
f 145/5/3 144/5/3 143/5/3
f 146/4/3 138/4/3 144/4/3
f 146/5/3 144/5/3 145/5/3
f 148/7/3 141/7/3 140/7/3
f 149/3/3 142/3/3 141/3/3
f 149/7/3 141/7/3 148/7/3
f 150/7/3 136/7/3 142/7/3
f 150/3/3 142/3/3 149/3/3
f 151/6/3 145/6/3 136/6/3
f 151/7/3 136/7/3 150/7/3
f 152/4/3 146/4/3 145/4/3
f 152/6/3 145/6/3 151/6/3
f 153/7/3 139/7/3 138/7/3
f 153/4/3 146/4/3 152/4/3
f 153/4/3 138/4/3 146/4/3
f 154/7/3 139/7/3 153/7/3
f 157/7/3 148/7/3 147/7/3
f 158/3/3 149/3/3 148/3/3
f 158/7/3 148/7/3 157/7/3
f 159/2/3 150/2/3 149/2/3
f 159/3/3 149/3/3 158/3/3
f 159/2/3 151/2/3 150/2/3
f 160/2/3 151/2/3 159/2/3
f 161/7/3 152/7/3 151/7/3
f 161/2/3 151/2/3 160/2/3
f 161/7/3 153/7/3 152/7/3
f 162/7/3 153/7/3 161/7/3
f 164/7/3 156/7/3 155/7/3
f 165/7/3 156/7/3 164/7/3
f 166/7/3 156/7/3 165/7/3
f 167/7/3 157/7/3 147/7/3
f 168/3/3 158/3/3 157/3/3
f 168/7/3 157/7/3 167/7/3
f 169/7/3 159/7/3 158/7/3
f 169/3/3 158/3/3 168/3/3
f 170/1/3 160/1/3 159/1/3
f 170/7/3 159/7/3 169/7/3
f 171/2/3 161/2/3 160/2/3
f 171/1/3 160/1/3 170/1/3
f 172/1/3 162/1/3 161/1/3
f 172/2/3 161/2/3 171/2/3
f 173/7/3 153/7/3 162/7/3
f 173/1/3 162/1/3 172/1/3
f 174/7/3 153/7/3 173/7/3
f 175/7/3 164/7/3 163/7/3
f 176/7/3 164/7/3 175/7/3
f 177/7/3 166/7/3 165/7/3
f 177/7/3 167/7/3 166/7/3
f 178/7/3 167/7/3 177/7/3
f 179/2/3 169/2/3 168/2/3
f 179/3/3 170/3/3 169/3/3
f 180/7/3 171/7/3 170/7/3
f 180/3/3 170/3/3 179/3/3
f 181/1/3 172/1/3 171/1/3
f 181/7/3 171/7/3 180/7/3
f 182/7/3 173/7/3 172/7/3
f 182/1/3 172/1/3 181/1/3
f 183/7/3 173/7/3 182/7/3
f 184/7/3 167/7/3 178/7/3
f 184/3/3 168/3/3 167/3/3
f 185/2/3 180/2/3 179/2/3
f 185/3/3 168/3/3 184/3/3
f 185/2/3 179/2/3 168/2/3
f 186/1/3 181/1/3 180/1/3
f 186/2/3 180/2/3 185/2/3
f 187/7/3 182/7/3 181/7/3
f 187/1/3 181/1/3 186/1/3
f 189/7/3 184/7/3 178/7/3
f 189/7/3 185/7/3 184/7/3
f 190/7/3 185/7/3 189/7/3
f 191/1/3 186/1/3 185/1/3
f 191/7/3 185/7/3 190/7/3
f 192/7/3 187/7/3 186/7/3
f 192/1/3 186/1/3 191/1/3
f 193/7/3 182/7/3 187/7/3
f 193/7/3 187/7/3 192/7/3
f 195/7/3 189/7/3 188/7/3
f 196/3/3 190/3/3 189/3/3
f 196/7/3 189/7/3 195/7/3
f 197/7/3 192/7/3 191/7/3
f 197/3/3 190/3/3 196/3/3
f 197/7/3 191/7/3 190/7/3
f 198/7/3 192/7/3 197/7/3
f 199/7/3 192/7/3 198/7/3
f 202/7/3 195/7/3 194/7/3
f 203/3/3 196/3/3 195/3/3
f 203/7/3 195/7/3 202/7/3
f 204/7/3 197/7/3 196/7/3
f 204/3/3 196/3/3 203/3/3
f 205/7/3 197/7/3 204/7/3
f 206/7/3 199/7/3 198/7/3
f 206/7/3 200/7/3 199/7/3
f 207/7/3 200/7/3 206/7/3
f 209/7/3 202/7/3 201/7/3
f 210/3/3 203/3/3 202/3/3
f 210/7/3 202/7/3 209/7/3
f 211/7/3 204/7/3 203/7/3
f 211/3/3 203/3/3 210/3/3
f 212/7/3 204/7/3 211/7/3
f 214/7/3 209/7/3 208/7/3
f 215/3/3 210/3/3 209/3/3
f 215/7/3 209/7/3 214/7/3
f 216/7/3 211/7/3 210/7/3
f 216/3/3 210/3/3 215/3/3
f 217/7/3 211/7/3 216/7/3
f 219/7/3 200/7/3 207/7/3
f 220/7/3 200/7/3 219/7/3
f 222/7/3 214/7/3 213/7/3
f 223/3/3 215/3/3 214/3/3
f 223/7/3 214/7/3 222/7/3
f 224/7/3 216/7/3 215/7/3
f 224/3/3 215/3/3 223/3/3
f 225/7/3 216/7/3 224/7/3
f 226/7/3 219/7/3 218/7/3
f 227/7/3 219/7/3 226/7/3
f 228/3/3 223/3/3 222/3/3
f 228/7/3 222/7/3 221/7/3
f 229/7/3 224/7/3 223/7/3
f 229/3/3 223/3/3 228/3/3
f 230/7/3 224/7/3 229/7/3
f 231/7/3 228/7/3 221/7/3
f 231/7/3 229/7/3 228/7/3
f 232/7/3 229/7/3 231/7/3
f 233/7/4 234/7/4 236/7/4
f 236/7/4 234/7/4 237/7/4
f 237/7/4 234/7/4 238/7/4
f 235/7/4 236/7/4 241/7/4
f 241/7/4 236/7/4 242/7/4
f 236/6/4 237/6/4 243/6/4
f 237/4/4 238/4/4 244/4/4
f 243/6/4 237/6/4 244/6/4
f 236/6/4 243/6/4 245/6/4
f 243/5/4 244/5/4 245/5/4
f 244/4/4 238/4/4 246/4/4
f 245/5/4 244/5/4 246/5/4
f 240/7/4 241/7/4 248/7/4
f 241/3/4 242/3/4 249/3/4
f 248/7/4 241/7/4 249/7/4
f 242/7/4 236/7/4 250/7/4
f 249/3/4 242/3/4 250/3/4
f 236/6/4 245/6/4 251/6/4
f 250/7/4 236/7/4 251/7/4
f 245/4/4 246/4/4 252/4/4
f 251/6/4 245/6/4 252/6/4
f 238/7/4 239/7/4 253/7/4
f 252/4/4 246/4/4 253/4/4
f 246/4/4 238/4/4 253/4/4
f 253/7/4 239/7/4 254/7/4
f 247/7/4 248/7/4 257/7/4
f 248/3/4 249/3/4 258/3/4
f 257/7/4 248/7/4 258/7/4
f 249/2/4 250/2/4 259/2/4
f 258/3/4 249/3/4 259/3/4
f 250/2/4 251/2/4 259/2/4
f 259/2/4 251/2/4 260/2/4
f 251/7/4 252/7/4 261/7/4
f 260/2/4 251/2/4 261/2/4
f 252/7/4 253/7/4 261/7/4
f 261/7/4 253/7/4 262/7/4
f 255/7/4 256/7/4 264/7/4
f 264/7/4 256/7/4 265/7/4
f 265/7/4 256/7/4 266/7/4
f 247/7/4 257/7/4 267/7/4
f 257/3/4 258/3/4 268/3/4
f 267/7/4 257/7/4 268/7/4
f 258/7/4 259/7/4 269/7/4
f 268/3/4 258/3/4 269/3/4
f 259/1/4 260/1/4 270/1/4
f 269/7/4 259/7/4 270/7/4
f 260/2/4 261/2/4 271/2/4
f 270/1/4 260/1/4 271/1/4
f 261/1/4 262/1/4 272/1/4
f 271/2/4 261/2/4 272/2/4
f 262/7/4 253/7/4 273/7/4
f 272/1/4 262/1/4 273/1/4
f 273/7/4 253/7/4 274/7/4
f 263/7/4 264/7/4 275/7/4
f 275/7/4 264/7/4 276/7/4
f 265/7/4 266/7/4 277/7/4
f 266/7/4 267/7/4 277/7/4
f 277/7/4 267/7/4 278/7/4
f 268/2/4 269/2/4 279/2/4
f 269/3/4 270/3/4 279/3/4
f 270/7/4 271/7/4 280/7/4
f 279/3/4 270/3/4 280/3/4
f 271/1/4 272/1/4 281/1/4
f 280/7/4 271/7/4 281/7/4
f 272/7/4 273/7/4 282/7/4
f 281/1/4 272/1/4 282/1/4
f 282/7/4 273/7/4 283/7/4
f 278/7/4 267/7/4 284/7/4
f 267/3/4 268/3/4 284/3/4
f 279/2/4 280/2/4 285/2/4
f 284/3/4 268/3/4 285/3/4
f 268/2/4 279/2/4 285/2/4
f 280/1/4 281/1/4 286/1/4
f 285/2/4 280/2/4 286/2/4
f 281/7/4 282/7/4 287/7/4
f 286/1/4 281/1/4 287/1/4
f 278/7/4 284/7/4 289/7/4
f 284/7/4 285/7/4 289/7/4
f 289/7/4 285/7/4 290/7/4
f 285/1/4 286/1/4 291/1/4
f 290/7/4 285/7/4 291/7/4
f 286/7/4 287/7/4 292/7/4
f 291/1/4 286/1/4 292/1/4
f 287/7/4 282/7/4 293/7/4
f 292/7/4 287/7/4 293/7/4
f 288/7/4 289/7/4 295/7/4
f 289/3/4 290/3/4 296/3/4
f 295/7/4 289/7/4 296/7/4
f 291/7/4 292/7/4 297/7/4
f 296/3/4 290/3/4 297/3/4
f 290/7/4 291/7/4 297/7/4
f 297/7/4 292/7/4 298/7/4
f 298/7/4 292/7/4 299/7/4
f 294/7/4 295/7/4 302/7/4
f 295/3/4 296/3/4 303/3/4
f 302/7/4 295/7/4 303/7/4
f 296/7/4 297/7/4 304/7/4
f 303/3/4 296/3/4 304/3/4
f 304/7/4 297/7/4 305/7/4
f 298/7/4 299/7/4 306/7/4
f 299/7/4 300/7/4 306/7/4
f 306/7/4 300/7/4 307/7/4
f 301/7/4 302/7/4 309/7/4
f 302/3/4 303/3/4 310/3/4
f 309/7/4 302/7/4 310/7/4
f 303/7/4 304/7/4 311/7/4
f 310/3/4 303/3/4 311/3/4
f 311/7/4 304/7/4 312/7/4
f 308/7/4 309/7/4 314/7/4
f 309/3/4 310/3/4 315/3/4
f 314/7/4 309/7/4 315/7/4
f 310/7/4 311/7/4 316/7/4
f 315/3/4 310/3/4 316/3/4
f 316/7/4 311/7/4 317/7/4
f 307/7/4 300/7/4 319/7/4
f 319/7/4 300/7/4 320/7/4
f 313/7/4 314/7/4 322/7/4
f 314/3/4 315/3/4 323/3/4
f 322/7/4 314/7/4 323/7/4
f 315/7/4 316/7/4 324/7/4
f 323/3/4 315/3/4 324/3/4
f 324/7/4 316/7/4 325/7/4
f 318/7/4 319/7/4 326/7/4
f 326/7/4 319/7/4 327/7/4
f 322/3/4 323/3/4 328/3/4
f 321/7/4 322/7/4 328/7/4
f 323/7/4 324/7/4 329/7/4
f 328/3/4 323/3/4 329/3/4
f 329/7/4 324/7/4 330/7/4
f 321/7/4 328/7/4 331/7/4
f 328/7/4 329/7/4 331/7/4
f 331/7/4 329/7/4 332/7/4
f 335/7/5 334/7/5 333/7/5
f 336/7/5 334/7/5 335/7/5
f 339/7/5 338/7/5 337/7/5
f 340/7/5 338/7/5 339/7/5
f 345/7/5 342/7/5 341/7/5
f 346/7/5 342/7/5 345/7/5
f 347/7/5 344/7/5 343/7/5
f 348/7/5 344/7/5 347/7/5
f 353/7/5 350/7/5 349/7/5
f 354/7/5 350/7/5 353/7/5
f 355/7/5 352/7/5 351/7/5
f 356/7/5 352/7/5 355/7/5
f 359/7/5 358/7/5 357/7/5
f 360/7/5 358/7/5 359/7/5
f 365/7/5 362/7/5 361/7/5
f 366/7/5 362/7/5 365/7/5
f 367/7/5 364/7/5 363/7/5
f 368/7/5 364/7/5 367/7/5
f 371/7/5 370/7/5 369/7/5
f 372/7/5 370/7/5 371/7/5
f 375/7/5 374/7/5 373/7/5
f 376/7/5 374/7/5 375/7/5
f 383/7/5 378/7/5 377/7/5
f 384/7/5 378/7/5 383/7/5
f 385/7/5 380/7/5 379/7/5
f 386/7/5 380/7/5 385/7/5
f 387/7/5 382/7/5 381/7/5
f 388/7/5 382/7/5 387/7/5
f 393/7/5 390/7/5 389/7/5
f 394/7/5 390/7/5 393/7/5
f 395/7/5 392/7/5 391/7/5
f 396/7/5 392/7/5 395/7/5
f 399/7/5 398/7/5 397/7/5
f 400/7/5 398/7/5 399/7/5
f 401/7/6 402/7/6 403/7/6
f 403/7/6 402/7/6 404/7/6
f 405/7/6 406/7/6 409/7/6
f 409/7/6 406/7/6 410/7/6
f 407/7/6 408/7/6 411/7/6
f 411/7/6 408/7/6 412/7/6
f 413/7/6 414/7/6 415/7/6
f 415/7/6 414/7/6 416/7/6
f 417/7/6 418/7/6 419/7/6
f 419/7/6 418/7/6 420/7/6
f 421/7/6 422/7/6 425/7/6
f 425/7/6 422/7/6 426/7/6
f 423/7/6 424/7/6 427/7/6
f 427/7/6 424/7/6 428/7/6
f 429/7/6 430/7/6 431/7/6
f 431/7/6 430/7/6 432/7/6
f 433/7/6 434/7/6 437/7/6
f 437/7/6 434/7/6 438/7/6
f 435/7/6 436/7/6 439/7/6
f 439/7/6 436/7/6 440/7/6
f 441/7/6 442/7/6 443/7/6
f 443/7/6 442/7/6 444/7/6
f 445/7/6 446/7/6 447/7/6
f 447/7/6 446/7/6 448/7/6
f 449/7/6 450/7/6 451/7/6
f 451/7/6 450/7/6 452/7/6
f 453/7/6 454/7/6 457/7/6
f 457/7/6 454/7/6 458/7/6
f 455/7/6 456/7/6 459/7/6
f 459/7/6 456/7/6 460/7/6
f 461/7/6 462/7/6 463/7/6
f 463/7/6 462/7/6 464/7/6
