# MagicaVoxel @ ephtracy

# material
mtllib sword.mtl
usemtl palette

# normals
vn -1 0 0
vn 1 0 0
vn 0 0 1
vn 0 0 -1
vn 0 -1 0
vn 0 1 0

# texcoords
vt 0.169922 0.5
vt 0.337891 0.5
vt 0.505859 0.5
vt 0.513672 0.5
vt 0.638672 0.5
vt 0.876953 0.5
vt 0.958984 0.5
vt 0.962891 0.5
vt 0.986328 0.5

# verts
v -8 13 0.5
v -8 13 -0.5
v -8 16 0.5
v -8 16 -0.5
v -7 12 0.5
v -7 12 -0.5
v -7 13 0.5
v -7 13 -0.5
v -6 11 0.5
v -6 11 -0.5
v -6 12 0.5
v -6 12 -0.5
v -5 10 0.5
v -5 10 -0.5
v -5 11 0.5
v -5 11 -0.5
v -4 9 0.5
v -4 9 -0.5
v -4 10 0.5
v -4 10 -0.5
v -3 8 0.5
v -3 8 -0.5
v -3 9 0.5
v -3 9 -0.5
v -2 1 0.5
v -2 1 -0.5
v -2 3 0.5
v -2 3 -0.5
v -2 7 0.5
v -2 7 -0.5
v -2 8 0.5
v -2 8 -0.5
v -1 3 0.5
v -1 3 -0.5
v -1 4 0.5
v -1 4 -0.5
v -1 6 0.5
v -1 6 -0.5
v -1 7 0.5
v -1 7 -0.5
v 0 4 0.5
v 0 4 -0.5
v 0 6 0.5
v 0 6 -0.5
v 4 2 0.5
v 4 2 -0.5
v 4 3 0.5
v 4 3 -0.5
v 4 8 0.5
v 4 8 -0.5
v 4 9 0.5
v 4 9 -0.5
v 5 1 0.5
v 5 1 -0.5
v 5 2 0.5
v 5 2 -0.5
v 5 9 0.5
v 5 9 -0.5
v 5 10 0.5
v 5 10 -0.5
v 6 0 0.5
v 6 0 -0.5
v 6 1 0.5
v 6 1 -0.5
v -5 15 0.5
v -5 15 -0.5
v -5 16 0.5
v -5 16 -0.5
v -4 14 0.5
v -4 14 -0.5
v -4 15 0.5
v -4 15 -0.5
v -3 13 0.5
v -3 13 -0.5
v -3 14 0.5
v -3 14 -0.5
v -2 12 0.5
v -2 12 -0.5
v -2 13 0.5
v -2 13 -0.5
v -1 11 0.5
v -1 11 -0.5
v -1 12 0.5
v -1 12 -0.5
v 0 10 0.5
v 0 10 -0.5
v 0 11 0.5
v 0 11 -0.5
v 1 1 0.5
v 1 1 -0.5
v 1 2 0.5
v 1 2 -0.5
v 1 9 0.5
v 1 9 -0.5
v 1 10 0.5
v 1 10 -0.5
v 2 2 0.5
v 2 2 -0.5
v 2 3 0.5
v 2 3 -0.5
v 2 8 0.5
v 2 8 -0.5
v 2 9 0.5
v 2 9 -0.5
v 5 4 0.5
v 5 4 -0.5
v 5 6 0.5
v 5 6 -0.5
v 6 3 0.5
v 6 3 -0.5
v 6 4 0.5
v 6 4 -0.5
v 6 6 0.5
v 6 6 -0.5
v 6 7 0.5
v 6 7 -0.5
v 7 0 0.5
v 7 0 -0.5
v 7 1 0.5
v 7 1 -0.5
v 7 2 0.5
v 7 2 -0.5
v 7 3 0.5
v 7 3 -0.5
v 7 7 0.5
v 7 7 -0.5
v 7 10 0.5
v 7 10 -0.5
v 8 1 0.5
v 8 1 -0.5
v 8 2 0.5
v 8 2 -0.5
v -8 13 0.5
v -8 16 0.5
v -7 12 0.5
v -7 13 0.5
v -7 14 0.5
v -7 15 0.5
v -6 11 0.5
v -6 12 0.5
v -6 13 0.5
v -6 14 0.5
v -5 10 0.5
v -5 11 0.5
v -5 12 0.5
v -5 13 0.5
v -5 14 0.5
v -5 15 0.5
v -5 16 0.5
v -4 9 0.5
v -4 10 0.5
v -4 11 0.5
v -4 12 0.5
v -4 13 0.5
v -4 14 0.5
v -4 15 0.5
v -3 8 0.5
v -3 9 0.5
v -3 10 0.5
v -3 11 0.5
v -3 12 0.5
v -3 13 0.5
v -3 14 0.5
v -2 1 0.5
v -2 3 0.5
v -2 7 0.5
v -2 8 0.5
v -2 9 0.5
v -2 10 0.5
v -2 11 0.5
v -2 12 0.5
v -2 13 0.5
v -1 2 0.5
v -1 3 0.5
v -1 4 0.5
v -1 6 0.5
v -1 7 0.5
v -1 8 0.5
v -1 9 0.5
v -1 10 0.5
v -1 11 0.5
v -1 12 0.5
v 0 3 0.5
v 0 4 0.5
v 0 6 0.5
v 0 7 0.5
v 0 8 0.5
v 0 9 0.5
v 0 10 0.5
v 0 11 0.5
v 1 1 0.5
v 1 2 0.5
v 1 3 0.5
v 1 4 0.5
v 1 6 0.5
v 1 7 0.5
v 1 8 0.5
v 1 9 0.5
v 1 10 0.5
v 2 2 0.5
v 2 3 0.5
v 2 4 0.5
v 2 5 0.5
v 2 6 0.5
v 2 7 0.5
v 2 8 0.5
v 2 9 0.5
v 3 5 0.5
v 3 6 0.5
v 4 2 0.5
v 4 3 0.5
v 4 4 0.5
v 4 5 0.5
v 4 6 0.5
v 4 7 0.5
v 4 8 0.5
v 4 9 0.5
v 5 1 0.5
v 5 2 0.5
v 5 3 0.5
v 5 4 0.5
v 5 6 0.5
v 5 7 0.5
v 5 8 0.5
v 5 9 0.5
v 5 10 0.5
v 6 0 0.5
v 6 1 0.5
v 6 2 0.5
v 6 3 0.5
v 6 4 0.5
v 6 6 0.5
v 6 7 0.5
v 6 8 0.5
v 6 9 0.5
v 7 0 0.5
v 7 1 0.5
v 7 2 0.5
v 7 3 0.5
v 7 7 0.5
v 7 10 0.5
v 8 1 0.5
v 8 2 0.5
v -8 13 -0.5
v -8 16 -0.5
v -7 12 -0.5
v -7 13 -0.5
v -7 14 -0.5
v -7 15 -0.5
v -6 11 -0.5
v -6 12 -0.5
v -6 13 -0.5
v -6 14 -0.5
v -5 10 -0.5
v -5 11 -0.5
v -5 12 -0.5
v -5 13 -0.5
v -5 14 -0.5
v -5 15 -0.5
v -5 16 -0.5
v -4 9 -0.5
v -4 10 -0.5
v -4 11 -0.5
v -4 12 -0.5
v -4 13 -0.5
v -4 14 -0.5
v -4 15 -0.5
v -3 8 -0.5
v -3 9 -0.5
v -3 10 -0.5
v -3 11 -0.5
v -3 12 -0.5
v -3 13 -0.5
v -3 14 -0.5
v -2 1 -0.5
v -2 3 -0.5
v -2 7 -0.5
v -2 8 -0.5
v -2 9 -0.5
v -2 10 -0.5
v -2 11 -0.5
v -2 12 -0.5
v -2 13 -0.5
v -1 2 -0.5
v -1 3 -0.5
v -1 4 -0.5
v -1 6 -0.5
v -1 7 -0.5
v -1 8 -0.5
v -1 9 -0.5
v -1 10 -0.5
v -1 11 -0.5
v -1 12 -0.5
v 0 3 -0.5
v 0 4 -0.5
v 0 6 -0.5
v 0 7 -0.5
v 0 8 -0.5
v 0 9 -0.5
v 0 10 -0.5
v 0 11 -0.5
v 1 1 -0.5
v 1 2 -0.5
v 1 3 -0.5
v 1 4 -0.5
v 1 6 -0.5
v 1 7 -0.5
v 1 8 -0.5
v 1 9 -0.5
v 1 10 -0.5
v 2 2 -0.5
v 2 3 -0.5
v 2 4 -0.5
v 2 5 -0.5
v 2 6 -0.5
v 2 7 -0.5
v 2 8 -0.5
v 2 9 -0.5
v 3 5 -0.5
v 3 6 -0.5
v 4 2 -0.5
v 4 3 -0.5
v 4 4 -0.5
v 4 5 -0.5
v 4 6 -0.5
v 4 7 -0.5
v 4 8 -0.5
v 4 9 -0.5
v 5 1 -0.5
v 5 2 -0.5
v 5 3 -0.5
v 5 4 -0.5
v 5 6 -0.5
v 5 7 -0.5
v 5 8 -0.5
v 5 9 -0.5
v 5 10 -0.5
v 6 0 -0.5
v 6 1 -0.5
v 6 2 -0.5
v 6 3 -0.5
v 6 4 -0.5
v 6 6 -0.5
v 6 7 -0.5
v 6 8 -0.5
v 6 9 -0.5
v 7 0 -0.5
v 7 1 -0.5
v 7 2 -0.5
v 7 3 -0.5
v 7 7 -0.5
v 7 10 -0.5
v 8 1 -0.5
v 8 2 -0.5
v 6 0 0.5
v 7 0 0.5
v 6 0 -0.5
v 7 0 -0.5
v -2 1 0.5
v 1 1 0.5
v 5 1 0.5
v 6 1 0.5
v 7 1 0.5
v 8 1 0.5
v -2 1 -0.5
v 1 1 -0.5
v 5 1 -0.5
v 6 1 -0.5
v 7 1 -0.5
v 8 1 -0.5
v 1 2 0.5
v 2 2 0.5
v 4 2 0.5
v 5 2 0.5
v 1 2 -0.5
v 2 2 -0.5
v 4 2 -0.5
v 5 2 -0.5
v 2 3 0.5
v 4 3 0.5
v 2 3 -0.5
v 4 3 -0.5
v -1 6 0.5
v 0 6 0.5
v 5 6 0.5
v 6 6 0.5
v -1 6 -0.5
v 0 6 -0.5
v 5 6 -0.5
v 6 6 -0.5
v -2 7 0.5
v -1 7 0.5
v 6 7 0.5
v 7 7 0.5
v -2 7 -0.5
v -1 7 -0.5
v 6 7 -0.5
v 7 7 -0.5
v -3 8 0.5
v -2 8 0.5
v -3 8 -0.5
v -2 8 -0.5
v -4 9 0.5
v -3 9 0.5
v -4 9 -0.5
v -3 9 -0.5
v -5 10 0.5
v -4 10 0.5
v -5 10 -0.5
v -4 10 -0.5
v -6 11 0.5
v -5 11 0.5
v -6 11 -0.5
v -5 11 -0.5
v -7 12 0.5
v -6 12 0.5
v -7 12 -0.5
v -6 12 -0.5
v -8 13 0.5
v -7 13 0.5
v -8 13 -0.5
v -7 13 -0.5
v 7 2 0.5
v 8 2 0.5
v 7 2 -0.5
v 8 2 -0.5
v -2 3 0.5
v -1 3 0.5
v 6 3 0.5
v 7 3 0.5
v -2 3 -0.5
v -1 3 -0.5
v 6 3 -0.5
v 7 3 -0.5
v -1 4 0.5
v 0 4 0.5
v 5 4 0.5
v 6 4 0.5
v -1 4 -0.5
v 0 4 -0.5
v 5 4 -0.5
v 6 4 -0.5
v 2 8 0.5
v 4 8 0.5
v 2 8 -0.5
v 4 8 -0.5
v 1 9 0.5
v 2 9 0.5
v 4 9 0.5
v 5 9 0.5
v 1 9 -0.5
v 2 9 -0.5
v 4 9 -0.5
v 5 9 -0.5
v 0 10 0.5
v 1 10 0.5
v 5 10 0.5
v 7 10 0.5
v 0 10 -0.5
v 1 10 -0.5
v 5 10 -0.5
v 7 10 -0.5
v -1 11 0.5
v 0 11 0.5
v -1 11 -0.5
v 0 11 -0.5
v -2 12 0.5
v -1 12 0.5
v -2 12 -0.5
v -1 12 -0.5
v -3 13 0.5
v -2 13 0.5
v -3 13 -0.5
v -2 13 -0.5
v -4 14 0.5
v -3 14 0.5
v -4 14 -0.5
v -3 14 -0.5
v -5 15 0.5
v -4 15 0.5
v -5 15 -0.5
v -4 15 -0.5
v -8 16 0.5
v -5 16 0.5
v -8 16 -0.5
v -5 16 -0.5

# faces
f 3/6/1 2/6/1 1/6/1
f 4/6/1 2/6/1 3/6/1
f 7/6/1 6/6/1 5/6/1
f 8/6/1 6/6/1 7/6/1
f 11/6/1 10/6/1 9/6/1
f 12/6/1 10/6/1 11/6/1
f 15/6/1 14/6/1 13/6/1
f 16/6/1 14/6/1 15/6/1
f 19/6/1 18/6/1 17/6/1
f 20/6/1 18/6/1 19/6/1
f 23/6/1 22/6/1 21/6/1
f 24/6/1 22/6/1 23/6/1
f 27/6/1 26/6/1 25/6/1
f 28/6/1 26/6/1 27/6/1
f 31/6/1 30/6/1 29/6/1
f 32/6/1 30/6/1 31/6/1
f 35/6/1 34/6/1 33/6/1
f 36/6/1 34/6/1 35/6/1
f 39/6/1 38/6/1 37/6/1
f 40/6/1 38/6/1 39/6/1
f 43/6/1 42/6/1 41/6/1
f 44/6/1 42/6/1 43/6/1
f 47/6/1 46/6/1 45/6/1
f 48/6/1 46/6/1 47/6/1
f 51/6/1 50/6/1 49/6/1
f 52/6/1 50/6/1 51/6/1
f 55/6/1 54/6/1 53/6/1
f 56/6/1 54/6/1 55/6/1
f 59/6/1 58/6/1 57/6/1
f 60/6/1 58/6/1 59/6/1
f 63/6/1 62/6/1 61/6/1
f 64/6/1 62/6/1 63/6/1
f 65/6/2 66/6/2 67/6/2
f 67/6/2 66/6/2 68/6/2
f 69/6/2 70/6/2 71/6/2
f 71/6/2 70/6/2 72/6/2
f 73/6/2 74/6/2 75/6/2
f 75/6/2 74/6/2 76/6/2
f 77/6/2 78/6/2 79/6/2
f 79/6/2 78/6/2 80/6/2
f 81/6/2 82/6/2 83/6/2
f 83/6/2 82/6/2 84/6/2
f 85/6/2 86/6/2 87/6/2
f 87/6/2 86/6/2 88/6/2
f 89/6/2 90/6/2 91/6/2
f 91/6/2 90/6/2 92/6/2
f 93/6/2 94/6/2 95/6/2
f 95/6/2 94/6/2 96/6/2
f 97/6/2 98/6/2 99/6/2
f 99/6/2 98/6/2 100/6/2
f 101/6/2 102/6/2 103/6/2
f 103/6/2 102/6/2 104/6/2
f 105/6/2 106/6/2 107/6/2
f 107/6/2 106/6/2 108/6/2
f 109/6/2 110/6/2 111/6/2
f 111/6/2 110/6/2 112/6/2
f 113/6/2 114/6/2 115/6/2
f 115/6/2 114/6/2 116/6/2
f 117/6/2 118/6/2 119/6/2
f 119/6/2 118/6/2 120/6/2
f 121/6/2 122/6/2 123/6/2
f 123/6/2 122/6/2 124/6/2
f 125/6/2 126/6/2 127/6/2
f 127/6/2 126/6/2 128/6/2
f 129/6/2 130/6/2 131/6/2
f 131/6/2 130/6/2 132/6/2
f 136/6/3 134/6/3 133/6/3
f 137/6/3 134/6/3 136/6/3
f 138/6/3 134/6/3 137/6/3
f 140/6/3 136/6/3 135/6/3
f 141/1/3 137/1/3 136/1/3
f 141/6/3 136/6/3 140/6/3
f 142/7/3 138/7/3 137/7/3
f 142/1/3 137/1/3 141/1/3
f 144/6/3 140/6/3 139/6/3
f 145/1/3 141/1/3 140/1/3
f 145/6/3 140/6/3 144/6/3
f 146/8/3 142/8/3 141/8/3
f 146/1/3 141/1/3 145/1/3
f 147/7/3 138/7/3 142/7/3
f 147/8/3 142/8/3 146/8/3
f 148/6/3 134/6/3 138/6/3
f 148/7/3 138/7/3 147/7/3
f 149/6/3 134/6/3 148/6/3
f 151/6/3 144/6/3 143/6/3
f 152/1/3 145/1/3 144/1/3
f 152/6/3 144/6/3 151/6/3
f 153/8/3 146/8/3 145/8/3
f 153/1/3 145/1/3 152/1/3
f 154/7/3 147/7/3 146/7/3
f 154/8/3 146/8/3 153/8/3
f 155/6/3 148/6/3 147/6/3
f 155/7/3 147/7/3 154/7/3
f 156/6/3 148/6/3 155/6/3
f 158/6/3 151/6/3 150/6/3
f 159/1/3 152/1/3 151/1/3
f 159/6/3 151/6/3 158/6/3
f 160/8/3 153/8/3 152/8/3
f 160/1/3 152/1/3 159/1/3
f 161/7/3 154/7/3 153/7/3
f 161/8/3 153/8/3 160/8/3
f 162/6/3 155/6/3 154/6/3
f 162/7/3 154/7/3 161/7/3
f 163/6/3 155/6/3 162/6/3
f 167/6/3 158/6/3 157/6/3
f 168/1/3 159/1/3 158/1/3
f 168/6/3 158/6/3 167/6/3
f 169/8/3 160/8/3 159/8/3
f 169/1/3 159/1/3 168/1/3
f 170/7/3 161/7/3 160/7/3
f 170/8/3 160/8/3 169/8/3
f 171/6/3 162/6/3 161/6/3
f 171/7/3 161/7/3 170/7/3
f 172/6/3 162/6/3 171/6/3
f 173/6/3 165/6/3 164/6/3
f 174/6/3 165/6/3 173/6/3
f 177/6/3 167/6/3 166/6/3
f 178/1/3 168/1/3 167/1/3
f 178/6/3 167/6/3 177/6/3
f 179/8/3 169/8/3 168/8/3
f 179/1/3 168/1/3 178/1/3
f 180/7/3 170/7/3 169/7/3
f 180/8/3 169/8/3 179/8/3
f 181/6/3 171/6/3 170/6/3
f 181/7/3 170/7/3 180/7/3
f 182/6/3 171/6/3 181/6/3
f 183/6/3 175/6/3 174/6/3
f 183/9/3 174/9/3 173/9/3
f 184/6/3 175/6/3 183/6/3
f 185/6/3 177/6/3 176/6/3
f 186/1/3 178/1/3 177/1/3
f 186/6/3 177/6/3 185/6/3
f 187/8/3 179/8/3 178/8/3
f 187/1/3 178/1/3 186/1/3
f 188/7/3 180/7/3 179/7/3
f 188/8/3 179/8/3 187/8/3
f 189/6/3 181/6/3 180/6/3
f 189/7/3 180/7/3 188/7/3
f 190/6/3 181/6/3 189/6/3
f 191/6/3 173/6/3 164/6/3
f 192/9/3 183/9/3 173/9/3
f 192/6/3 173/6/3 191/6/3
f 193/3/3 184/3/3 183/3/3
f 193/9/3 183/9/3 192/9/3
f 194/6/3 185/6/3 184/6/3
f 194/3/3 184/3/3 193/3/3
f 195/1/3 186/1/3 185/1/3
f 195/6/3 185/6/3 194/6/3
f 196/8/3 187/8/3 186/8/3
f 196/1/3 186/1/3 195/1/3
f 197/7/3 188/7/3 187/7/3
f 197/8/3 187/8/3 196/8/3
f 198/6/3 189/6/3 188/6/3
f 198/7/3 188/7/3 197/7/3
f 199/6/3 189/6/3 198/6/3
f 200/6/3 193/6/3 192/6/3
f 201/9/3 194/9/3 193/9/3
f 201/6/3 193/6/3 200/6/3
f 202/3/3 195/3/3 194/3/3
f 202/9/3 194/9/3 201/9/3
f 203/3/3 195/3/3 202/3/3
f 204/6/3 196/6/3 195/6/3
f 204/3/3 195/3/3 203/3/3
f 205/7/3 197/7/3 196/7/3
f 205/6/3 196/6/3 204/6/3
f 206/6/3 198/6/3 197/6/3
f 206/7/3 197/7/3 205/7/3
f 207/6/3 198/6/3 206/6/3
f 208/9/3 203/9/3 202/9/3
f 208/5/3 204/5/3 203/5/3
f 209/2/3 205/2/3 204/2/3
f 209/5/3 204/5/3 208/5/3
f 211/6/3 202/6/3 201/6/3
f 212/9/3 208/9/3 202/9/3
f 212/6/3 202/6/3 211/6/3
f 213/3/3 209/3/3 208/3/3
f 213/9/3 208/9/3 212/9/3
f 214/2/3 205/2/3 209/2/3
f 214/3/3 209/3/3 213/3/3
f 215/6/3 206/6/3 205/6/3
f 215/2/3 205/2/3 214/2/3
f 216/6/3 206/6/3 215/6/3
f 219/6/3 211/6/3 210/6/3
f 220/4/3 212/4/3 211/4/3
f 220/6/3 211/6/3 219/6/3
f 221/6/3 214/6/3 213/6/3
f 221/4/3 212/4/3 220/4/3
f 221/6/3 213/6/3 212/6/3
f 222/3/3 215/3/3 214/3/3
f 222/6/3 214/6/3 221/6/3
f 223/2/3 216/2/3 215/2/3
f 223/3/3 215/3/3 222/3/3
f 224/6/3 217/6/3 216/6/3
f 224/2/3 216/2/3 223/2/3
f 225/6/3 217/6/3 224/6/3
f 228/6/3 219/6/3 218/6/3
f 229/4/3 220/4/3 219/4/3
f 229/6/3 219/6/3 228/6/3
f 230/6/3 221/6/3 220/6/3
f 230/4/3 220/4/3 229/4/3
f 231/6/3 221/6/3 230/6/3
f 232/6/3 223/6/3 222/6/3
f 233/3/3 224/3/3 223/3/3
f 233/6/3 223/6/3 232/6/3
f 234/2/3 225/2/3 224/2/3
f 234/3/3 224/3/3 233/3/3
f 235/6/3 226/6/3 225/6/3
f 235/2/3 225/2/3 234/2/3
f 236/6/3 228/6/3 227/6/3
f 237/4/3 229/4/3 228/4/3
f 237/6/3 228/6/3 236/6/3
f 238/6/3 230/6/3 229/6/3
f 238/4/3 229/4/3 237/4/3
f 239/6/3 230/6/3 238/6/3
f 240/6/3 235/6/3 234/6/3
f 240/6/3 234/6/3 233/6/3
f 241/6/3 226/6/3 235/6/3
f 241/6/3 235/6/3 240/6/3
f 242/6/3 238/6/3 237/6/3
f 243/6/3 238/6/3 242/6/3
f 244/6/4 245/6/4 247/6/4
f 247/6/4 245/6/4 248/6/4
f 248/6/4 245/6/4 249/6/4
f 246/6/4 247/6/4 251/6/4
f 247/1/4 248/1/4 252/1/4
f 251/6/4 247/6/4 252/6/4
f 248/7/4 249/7/4 253/7/4
f 252/1/4 248/1/4 253/1/4
f 250/6/4 251/6/4 255/6/4
f 251/1/4 252/1/4 256/1/4
f 255/6/4 251/6/4 256/6/4
f 252/8/4 253/8/4 257/8/4
f 256/1/4 252/1/4 257/1/4
f 253/7/4 249/7/4 258/7/4
f 257/8/4 253/8/4 258/8/4
f 249/6/4 245/6/4 259/6/4
f 258/7/4 249/7/4 259/7/4
f 259/6/4 245/6/4 260/6/4
f 254/6/4 255/6/4 262/6/4
f 255/1/4 256/1/4 263/1/4
f 262/6/4 255/6/4 263/6/4
f 256/8/4 257/8/4 264/8/4
f 263/1/4 256/1/4 264/1/4
f 257/7/4 258/7/4 265/7/4
f 264/8/4 257/8/4 265/8/4
f 258/6/4 259/6/4 266/6/4
f 265/7/4 258/7/4 266/7/4
f 266/6/4 259/6/4 267/6/4
f 261/6/4 262/6/4 269/6/4
f 262/1/4 263/1/4 270/1/4
f 269/6/4 262/6/4 270/6/4
f 263/8/4 264/8/4 271/8/4
f 270/1/4 263/1/4 271/1/4
f 264/7/4 265/7/4 272/7/4
f 271/8/4 264/8/4 272/8/4
f 265/6/4 266/6/4 273/6/4
f 272/7/4 265/7/4 273/7/4
f 273/6/4 266/6/4 274/6/4
f 268/6/4 269/6/4 278/6/4
f 269/1/4 270/1/4 279/1/4
f 278/6/4 269/6/4 279/6/4
f 270/8/4 271/8/4 280/8/4
f 279/1/4 270/1/4 280/1/4
f 271/7/4 272/7/4 281/7/4
f 280/8/4 271/8/4 281/8/4
f 272/6/4 273/6/4 282/6/4
f 281/7/4 272/7/4 282/7/4
f 282/6/4 273/6/4 283/6/4
f 275/6/4 276/6/4 284/6/4
f 284/6/4 276/6/4 285/6/4
f 277/6/4 278/6/4 288/6/4
f 278/1/4 279/1/4 289/1/4
f 288/6/4 278/6/4 289/6/4
f 279/8/4 280/8/4 290/8/4
f 289/1/4 279/1/4 290/1/4
f 280/7/4 281/7/4 291/7/4
f 290/8/4 280/8/4 291/8/4
f 281/6/4 282/6/4 292/6/4
f 291/7/4 281/7/4 292/7/4
f 292/6/4 282/6/4 293/6/4
f 285/6/4 286/6/4 294/6/4
f 284/9/4 285/9/4 294/9/4
f 294/6/4 286/6/4 295/6/4
f 287/6/4 288/6/4 296/6/4
f 288/1/4 289/1/4 297/1/4
f 296/6/4 288/6/4 297/6/4
f 289/8/4 290/8/4 298/8/4
f 297/1/4 289/1/4 298/1/4
f 290/7/4 291/7/4 299/7/4
f 298/8/4 290/8/4 299/8/4
f 291/6/4 292/6/4 300/6/4
f 299/7/4 291/7/4 300/7/4
f 300/6/4 292/6/4 301/6/4
f 275/6/4 284/6/4 302/6/4
f 284/9/4 294/9/4 303/9/4
f 302/6/4 284/6/4 303/6/4
f 294/3/4 295/3/4 304/3/4
f 303/9/4 294/9/4 304/9/4
f 295/6/4 296/6/4 305/6/4
f 304/3/4 295/3/4 305/3/4
f 296/1/4 297/1/4 306/1/4
f 305/6/4 296/6/4 306/6/4
f 297/8/4 298/8/4 307/8/4
f 306/1/4 297/1/4 307/1/4
f 298/7/4 299/7/4 308/7/4
f 307/8/4 298/8/4 308/8/4
f 299/6/4 300/6/4 309/6/4
f 308/7/4 299/7/4 309/7/4
f 309/6/4 300/6/4 310/6/4
f 303/6/4 304/6/4 311/6/4
f 304/9/4 305/9/4 312/9/4
f 311/6/4 304/6/4 312/6/4
f 305/3/4 306/3/4 313/3/4
f 312/9/4 305/9/4 313/9/4
f 313/3/4 306/3/4 314/3/4
f 306/6/4 307/6/4 315/6/4
f 314/3/4 306/3/4 315/3/4
f 307/7/4 308/7/4 316/7/4
f 315/6/4 307/6/4 316/6/4
f 308/6/4 309/6/4 317/6/4
f 316/7/4 308/7/4 317/7/4
f 317/6/4 309/6/4 318/6/4
f 313/9/4 314/9/4 319/9/4
f 314/5/4 315/5/4 319/5/4
f 315/2/4 316/2/4 320/2/4
f 319/5/4 315/5/4 320/5/4
f 312/6/4 313/6/4 322/6/4
f 313/9/4 319/9/4 323/9/4
f 322/6/4 313/6/4 323/6/4
f 319/3/4 320/3/4 324/3/4
f 323/9/4 319/9/4 324/9/4
f 320/2/4 316/2/4 325/2/4
f 324/3/4 320/3/4 325/3/4
f 316/6/4 317/6/4 326/6/4
f 325/2/4 316/2/4 326/2/4
f 326/6/4 317/6/4 327/6/4
f 321/6/4 322/6/4 330/6/4
f 322/4/4 323/4/4 331/4/4
f 330/6/4 322/6/4 331/6/4
f 324/6/4 325/6/4 332/6/4
f 331/4/4 323/4/4 332/4/4
f 323/6/4 324/6/4 332/6/4
f 325/3/4 326/3/4 333/3/4
f 332/6/4 325/6/4 333/6/4
f 326/2/4 327/2/4 334/2/4
f 333/3/4 326/3/4 334/3/4
f 327/6/4 328/6/4 335/6/4
f 334/2/4 327/2/4 335/2/4
f 335/6/4 328/6/4 336/6/4
f 329/6/4 330/6/4 339/6/4
f 330/4/4 331/4/4 340/4/4
f 339/6/4 330/6/4 340/6/4
f 331/6/4 332/6/4 341/6/4
f 340/4/4 331/4/4 341/4/4
f 341/6/4 332/6/4 342/6/4
f 333/6/4 334/6/4 343/6/4
f 334/3/4 335/3/4 344/3/4
f 343/6/4 334/6/4 344/6/4
f 335/2/4 336/2/4 345/2/4
f 344/3/4 335/3/4 345/3/4
f 336/6/4 337/6/4 346/6/4
f 345/2/4 336/2/4 346/2/4
f 338/6/4 339/6/4 347/6/4
f 339/4/4 340/4/4 348/4/4
f 347/6/4 339/6/4 348/6/4
f 340/6/4 341/6/4 349/6/4
f 348/4/4 340/4/4 349/4/4
f 349/6/4 341/6/4 350/6/4
f 345/6/4 346/6/4 351/6/4
f 344/6/4 345/6/4 351/6/4
f 346/6/4 337/6/4 352/6/4
f 351/6/4 346/6/4 352/6/4
f 348/6/4 349/6/4 353/6/4
f 353/6/4 349/6/4 354/6/4
f 357/6/5 356/6/5 355/6/5
f 358/6/5 356/6/5 357/6/5
f 365/6/5 360/6/5 359/6/5
f 366/6/5 360/6/5 365/6/5
f 367/6/5 362/6/5 361/6/5
f 368/6/5 362/6/5 367/6/5
f 369/6/5 364/6/5 363/6/5
f 370/6/5 364/6/5 369/6/5
f 375/6/5 372/6/5 371/6/5
f 376/6/5 372/6/5 375/6/5
f 377/6/5 374/6/5 373/6/5
f 378/6/5 374/6/5 377/6/5
f 381/6/5 380/6/5 379/6/5
f 382/6/5 380/6/5 381/6/5
f 387/6/5 384/6/5 383/6/5
f 388/6/5 384/6/5 387/6/5
f 389/6/5 386/6/5 385/6/5
f 390/6/5 386/6/5 389/6/5
f 395/6/5 392/6/5 391/6/5
f 396/6/5 392/6/5 395/6/5
f 397/6/5 394/6/5 393/6/5
f 398/6/5 394/6/5 397/6/5
f 401/6/5 400/6/5 399/6/5
f 402/6/5 400/6/5 401/6/5
f 405/6/5 404/6/5 403/6/5
f 406/6/5 404/6/5 405/6/5
f 409/6/5 408/6/5 407/6/5
f 410/6/5 408/6/5 409/6/5
f 413/6/5 412/6/5 411/6/5
f 414/6/5 412/6/5 413/6/5
f 417/6/5 416/6/5 415/6/5
f 418/6/5 416/6/5 417/6/5
f 421/6/5 420/6/5 419/6/5
f 422/6/5 420/6/5 421/6/5
f 423/6/6 424/6/6 425/6/6
f 425/6/6 424/6/6 426/6/6
f 427/6/6 428/6/6 431/6/6
f 431/6/6 428/6/6 432/6/6
f 429/6/6 430/6/6 433/6/6
f 433/6/6 430/6/6 434/6/6
f 435/6/6 436/6/6 439/6/6
f 439/6/6 436/6/6 440/6/6
f 437/6/6 438/6/6 441/6/6
f 441/6/6 438/6/6 442/6/6
f 443/6/6 444/6/6 445/6/6
f 445/6/6 444/6/6 446/6/6
f 447/6/6 448/6/6 451/6/6
f 451/6/6 448/6/6 452/6/6
f 449/6/6 450/6/6 453/6/6
f 453/6/6 450/6/6 454/6/6
f 455/6/6 456/6/6 459/6/6
f 459/6/6 456/6/6 460/6/6
f 457/6/6 458/6/6 461/6/6
f 461/6/6 458/6/6 462/6/6
f 463/6/6 464/6/6 465/6/6
f 465/6/6 464/6/6 466/6/6
f 467/6/6 468/6/6 469/6/6
f 469/6/6 468/6/6 470/6/6
f 471/6/6 472/6/6 473/6/6
f 473/6/6 472/6/6 474/6/6
f 475/6/6 476/6/6 477/6/6
f 477/6/6 476/6/6 478/6/6
f 479/6/6 480/6/6 481/6/6
f 481/6/6 480/6/6 482/6/6
f 483/6/6 484/6/6 485/6/6
f 485/6/6 484/6/6 486/6/6
